<?xml version="1.0" standalone="no"?><!DOCTYPE svg PUBLIC "-//W3C//DTD SVG 1.1//EN" "http://www.w3.org/Graphics/SVG/1.1/DTD/svg11.dtd"><svg t="1506650364065" class="icon" style="" viewBox="0 0 1024 1024" version="1.1" xmlns="http://www.w3.org/2000/svg" p-id="999" xmlns:xlink="http://www.w3.org/1999/xlink" width="64" height="64"><defs><style type="text/css"></style></defs><path d="M495.6 923.3H216.8c-42.3 0-76.6-37.6-76.6-83.9V187.5c0-46.2 34.2-83.9 76.2-83.9h538.3c42.3 0 76.6 37.6 76.6 83.9v347.7c0 11.9 9.7 21.6 21.6 21.6 11.9 0 21.6-9.7 21.6-21.6V187.5c0-70.1-53.8-127.1-119.8-127.1H216.3c-65.8 0-119.4 57-119.4 127.1v651.9c0 70.1 53.6 127.1 119.4 127.1h279.3c11.9 0 21.6-9.7 21.6-21.6 0.1-11.9-9.6-21.6-21.6-21.6z" fill="#1296db" p-id="1000"></path><path d="M490.2 530.8H245.3c-13.7 0-24.8 11.1-24.8 24.8s11.1 24.8 24.8 24.8h244.9c13.9 0 24.8-10.9 24.8-24.8 0-13.7-11.1-24.8-24.8-24.8zM490.2 682.5H245.3c-13.7 0-24.8 11.1-24.8 24.8s11.1 24.8 24.8 24.8h244.9c13.7 0 24.8-11.1 24.8-24.8s-11.1-24.8-24.8-24.8zM773 418c0-13.9-8.7-24.8-19.8-24.8H240.8c-11.1 0-19.8 10.9-19.8 24.8s8.7 24.8 19.8 24.8h512.5c11-0.1 19.7-11 19.7-24.8zM240.8 285.6h512.5c11.1 0 19.8-10.9 19.8-24.8s-8.7-24.8-19.8-24.8H240.8c-11.1 0-19.8 10.9-19.8 24.8s8.7 24.8 19.8 24.8zM866.4 900.2H611.1c-21 0-31 8-31.6 25.1v38.5H898v-37.5c0-17.6-10.4-26.1-31.6-26.1zM812 620.3c-20.7-16.5-46.9-25.7-73.7-25.7-30.8 0-60 11.9-82.1 33.6-41.7 40.8-42.7 110.6-2.6 163.5-0.3 0.4-0.6 0.8-1 1.3-1.6 2-2.8 3.4-3.7 4.6-0.9 1.1-1.6 1.9-2.2 2.7-9.2 12.6-12.5 31.9-8.2 46.9 7.4 24.7 31.7 27.3 40.9 28.3h0.3c8.5 0.5 16.3 0.9 26 0.9H723.1c10.8-0.5 21.1-0.5 32-0.5 4.2 0 8.6-0.1 12.7-0.1 8.5-0.1 17.4-0.2 26.1 0.1h1.5c26.2 0 38.1-13.9 43.5-25.6 8.2-18.4 4.5-38-10.1-53.6l-5.6-5.6c5-6.2 10.1-12.6 14.6-19.6 31.5-49.2 20.5-114.3-25.8-151.2z m-11.5 127.6c-3.8 5.9-8.5 11.5-14.1 18.1l-0.8 0.8-0.2 0.3c-13.4 16.4-12.6 36.2 2 50.4l8.6 8.6c3.3 3.3 2.8 4.5 2.1 5.9-0.4 0.1-1.6 0.4-4.1 0.4h-40.4c-10.8 0.5-21.8 0.5-32.4 0.5h-15.8c-8.6 0-15.9-0.5-21.9-0.9h-0.2c-0.6 0-2-0.1-3.4-0.3 0.2-2.1 0.7-4.8 1.5-6.7 0.8-1.1 1.9-2.6 3.5-4.2l0.3-0.3c0.5-0.6 0.9-1.2 1.4-1.7 1-1.3 1.9-2.5 2.5-3l0.3-0.3c16.4-20.4 9.3-37.5 0.4-48.3-24.5-30.2-34.1-78.7-3.4-108.9 13.8-13.8 31.8-21.2 51.8-21.2 16.6 0 33.6 6 46.7 16.4 28.6 23.2 35.4 63.8 15.6 94.4z" fill="#1296db" p-id="1001"></path></svg>