<?xml version="1.0" standalone="no"?><!DOCTYPE svg PUBLIC "-//W3C//DTD SVG 1.1//EN" "http://www.w3.org/Graphics/SVG/1.1/DTD/svg11.dtd"><svg t="1515815809242" class="icon" style="" viewBox="0 0 1024 1024" version="1.1" xmlns="http://www.w3.org/2000/svg" p-id="1876" xmlns:xlink="http://www.w3.org/1999/xlink" width="32" height="32"><defs><style type="text/css"></style></defs><path d="M512 681.984c-16.384 0-29.184-13.312-29.184-29.184L482.816 374.272c0-16.384 13.312-29.184 29.184-29.184s29.184 13.312 29.184 29.184l0 278.528C541.184 669.184 528.384 681.984 512 681.984z" p-id="1877" fill="#888888"></path><path d="M512 843.264c-16.384 0-29.184-13.312-29.184-29.184l0-58.368c0-16.384 13.312-29.184 29.184-29.184s29.184 13.312 29.184 29.184L541.184 814.08C541.184 829.952 528.384 843.264 512 843.264z" p-id="1878" fill="#888888"></path><path d="M139.264 623.616c-7.68 0-14.848-3.072-20.48-8.704-11.264-11.264-11.264-30.208 0-41.472L491.52 200.704c11.264-11.264 30.208-11.264 41.472 0 11.264 11.264 11.264 30.208 0 41.472l-372.736 372.736C154.112 620.544 146.432 623.616 139.264 623.616z" p-id="1879" fill="#888888"></path><path d="M884.736 623.616c-7.68 0-14.848-3.072-20.48-8.704L491.52 242.176c-11.264-11.264-11.264-30.208 0-41.472 11.264-11.264 30.208-11.264 41.472 0l372.736 372.736c11.264 11.264 11.264 30.208 0 41.472C900.096 620.544 892.416 623.616 884.736 623.616z" p-id="1880" fill="#888888"></path></svg>