<?xml version="1.0" standalone="no"?><!DOCTYPE svg PUBLIC "-//W3C//DTD SVG 1.1//EN" "http://www.w3.org/Graphics/SVG/1.1/DTD/svg11.dtd"><svg t="1506395509535" class="icon" style="" viewBox="0 0 1024 1024" version="1.1" xmlns="http://www.w3.org/2000/svg" p-id="7284" xmlns:xlink="http://www.w3.org/1999/xlink" width="48" height="48"><defs><style type="text/css"></style></defs><path d="M938.946632 148.984377l-42.244719-0.687414c-0.999875 0-95.800525-2.062242-193.663292-41.744782-100.362455-40.782402-165.104362-87.551556-165.604299-87.989001l-25.621797-18.472691L486.503187 18.56318c-0.624922 0.437445-65.304337 47.219098-165.666792 87.989001-97.800275 39.720035-192.600925 41.744782-193.538308 41.744782L84.865892 148.984377l0 430.446194c0 216.097988 277.715286 444.569429 427.071616 444.569429 149.418823 0 427.134108-228.471441 427.134108-444.569429L938.946632 148.984377zM464.31846 699.728034 282.966129 545.309836l55.743032-65.616798 116.297963 98.987627 220.847394-254.343207 65.241845 56.555431L464.31846 699.728034z" p-id="7285" fill="#66cccc"></path></svg>