<?xml version="1.0" standalone="no"?><!DOCTYPE svg PUBLIC "-//W3C//DTD SVG 1.1//EN" "http://www.w3.org/Graphics/SVG/1.1/DTD/svg11.dtd"><svg t="1511505534886" class="icon" style="" viewBox="0 0 1024 1024" version="1.1" xmlns="http://www.w3.org/2000/svg" p-id="4579" xmlns:xlink="http://www.w3.org/1999/xlink" width="24" height="24"><defs><style type="text/css"></style></defs><path d="M885.003472 568.383317c0 50.999728-8.888349 99.011759-26.665046 144.03814-17.705025 44.951637-42.039708 84.80535-72.930328 119.558065-30.891644 34.826435-67.319436 63.240277-109.212728 85.387941-41.964964 22.148687-87.063017 35.554418-135.439551 40.216168-3.060393 0.582591-5.828979 1.166205-8.305757 1.530708-2.405107 0.218088-5.173693 0.437199-8.233062 0.437199H365.38986c-10.419057 0-20.619003-1.967908-30.745228-5.901675-10.128274-4.007487-19.089318-9.471963-27.103269-16.393428-7.941255-6.921465-14.498216-15.080807-19.744604-24.334682-5.172669-9.325548-7.794839-18.870207-7.794839-28.777321 0-9.909162 2.476779-19.525493 7.431359-28.852065 4.881885-9.252852 11.219735-17.194106 19.233686-23.751068 7.942278-6.556962 16.830627-11.948742 26.593374-15.883533 9.835442-4.006463 19.889996-5.973347 30.309053-5.973347l142.289344 0.947094c32.421329 0 63.021166-6.484266 91.79951-19.306381 28.778345-12.968532 53.84101-30.309053 75.260691-52.165934 21.420705-21.85688 38.249284-47.50316 50.490857-76.936791 12.312221-29.361959 18.433008-61.054282 18.433008-94.713488 0-31.766042-5.537172-61.636873-16.53882-89.396452-11.07332-27.831251-27.684835-51.14512-45.461532-74.532708-53.185723-69.359016-154.383477-77.372966-155.622379-77.372966H378.284672v78.39378c0 11.292431-4.153903 19.524469-12.458637 24.770857-8.233062 5.39178-21.566097 2.03958-39.925384-9.762746-4.881885-3.351177-12.677748-9.180156-23.387588-17.485914-10.70984-8.233062-23.241173-18.06748-37.666694-29.287216-14.352824-11.220759-29.506327-23.169501-45.38986-35.699809l-45.972451-37.739389a948.727023 948.727023 0 0 1-23.823764-21.27429c-6.703377-6.33785-10.128274-14.134737-10.128274-23.313869 0-8.014974 3.861072-16.319708 11.511543-24.917273 7.650471-8.523845 16.393428-17.194106 26.156175-25.790647a2136.331611 2136.331611 0 0 1 39.487161-34.68002c15.299918-13.260339 30.381749-26.155151 45.462556-38.759179 14.935415-12.531332 28.486538-23.970179 40.362584-34.242821 11.948742-10.272641 20.327195-17.340522 25.280752-21.346985 14.644632-11.292431 26.666069-13.551122 35.772506-6.921465 9.180156 6.556962 14.061017 16.53882 14.717327 29.725439v79.41357h145.931304c3.059369 0 81.599565 5.39178 153.363687 43.71376 41.455069 22.148687 77.882861 50.12533 108.70181 84.878045 30.96434 34.751692 55.152607 74.531684 72.565824 119.558066 17.487961 45.025357 26.158222 92.746604 26.158223 142.94463m0 0" fill="#666666" p-id="4580"></path></svg>