<?xml version="1.0" standalone="no"?><!DOCTYPE svg PUBLIC "-//W3C//DTD SVG 1.1//EN" "http://www.w3.org/Graphics/SVG/1.1/DTD/svg11.dtd"><svg t="1514874752041" class="icon" style="" viewBox="0 0 1025 1024" version="1.1" xmlns="http://www.w3.org/2000/svg" p-id="1009" xmlns:xlink="http://www.w3.org/1999/xlink" width="200.1953125" height="200"><defs><style type="text/css"></style></defs><path d="M267.776 957.952c-12.8-6.656-17.92-23.04-10.752-35.84s23.04-17.408 35.84-10.752c32.768 17.92 68.096 31.744 104.96 40.96 35.84 9.216 73.216 13.824 112.128 13.824 126.464 0 240.64-51.2 323.072-133.632 82.944-82.432 133.632-196.608 133.632-322.56s-51.2-240.128-133.632-322.56c-82.944-82.432-197.12-133.632-323.072-133.632s-240.64 51.2-323.072 133.632C103.936 269.824 52.736 384 52.736 509.952c0 55.296 9.728 108.544 28.16 157.184 18.944 51.2 46.592 97.792 80.896 138.24 9.216 11.264 8.192 27.648-3.072 36.864-11.264 9.216-27.648 8.192-36.864-3.072-38.912-45.568-69.632-97.28-90.624-154.112C11.264 630.784 0 571.392 0 509.952c0-140.8 56.832-267.776 149.504-359.936C241.664 57.856 369.152 1.024 509.952 1.024 650.752 1.024 778.24 57.856 870.4 150.016c92.16 92.16 149.504 219.648 149.504 359.936s-56.832 267.776-149.504 359.936c-92.16 92.16-219.648 148.992-360.448 148.992-43.008 0-84.992-5.12-124.928-15.36-41.472-10.24-80.384-25.6-117.248-45.568z m268.8-456.704v73.728h131.072c14.848 0 26.624 11.776 26.624 26.624 0 14.336-11.776 26.112-26.624 26.112h-131.072v82.944c0 14.336-11.776 26.112-26.624 26.112-14.848 0-26.624-11.776-26.624-26.112v-82.944H352.768c-14.848 0-26.624-11.776-26.624-26.112s11.776-26.624 26.624-26.624h131.072V501.248H352.768c-14.848 0-26.624-11.776-26.624-26.112s11.776-26.624 26.624-26.624h121.856L335.36 328.704c-10.752-9.728-12.288-26.112-2.56-36.864 9.728-10.752 26.112-12.288 37.376-2.56L509.952 409.6 650.24 289.28c11.264-9.728 27.648-8.192 37.376 2.56 9.728 11.264 8.192 27.648-2.56 36.864l-139.264 119.808h121.856c14.848 0 26.624 11.776 26.624 26.624 0 14.336-11.776 26.112-26.624 26.112h-131.072z" fill="#d4237a" p-id="1010"></path></svg>