<?xml version="1.0" standalone="no"?><!DOCTYPE svg PUBLIC "-//W3C//DTD SVG 1.1//EN" "http://www.w3.org/Graphics/SVG/1.1/DTD/svg11.dtd"><svg t="1505205599867" class="icon" style="" viewBox="0 0 1024 1024" version="1.1" xmlns="http://www.w3.org/2000/svg" p-id="18555" xmlns:xlink="http://www.w3.org/1999/xlink" width="18" height="18"><defs><style type="text/css"></style></defs><path d="M837.8368 190.848c-87.0144-87.0144-202.7264-134.9376-325.8112-134.9376-123.0848 0-238.8224 47.9488-325.8624 134.9888-87.0144 87.0144-134.9376 202.7264-134.9376 325.8112 0 123.0848 47.9232 238.7968 134.9376 325.8112 87.0144 87.0144 202.7264 134.9376 325.8112 134.9376s238.7968-47.9232 325.8112-134.9376c87.04-87.0144 134.9632-202.752 134.9632-325.8368C972.8 393.6 924.8512 277.8624 837.8368 190.848zM810.6496 815.36C730.88 895.1296 624.8192 939.0592 512 939.0592s-218.9056-43.9296-298.6752-123.6992C133.5552 735.5904 89.6 629.5296 89.6256 516.7104c0-112.8192 43.9296-218.88 123.6992-298.6752C293.12 138.24 399.2064 94.3104 512.0256 94.3104c112.8192 0 218.88 43.9296 298.6496 123.6992 79.7696 79.7696 123.6992 185.8304 123.6992 298.6752C934.3744 629.504 890.4192 735.5904 810.6496 815.36z" p-id="18556" fill="#999999"></path><path d="M687.3344 264.064l-174.6176 206.5152-175.0272-206.1568c-6.8608-8.064-18.9696-9.0624-27.0592-2.2016s-9.0624 18.9696-2.2016 27.0592l184.3968 217.1648 0 21.8112-125.9008 0c-10.5984 0-19.2 8.6016-19.2 19.2s8.6016 19.2 19.2 19.2l125.9008 0 0 85.4016-125.9008 0c-10.5984 0-19.2 8.6016-19.2 19.2s8.6016 19.2 19.2 19.2l125.9008 0 0 109.8752c0 10.5984 8.6016 19.2 19.2 19.2s19.2-8.6016 19.2-19.2l0-109.8752 125.9008 0c10.5984 0 19.2-8.6016 19.2-19.2s-8.6016-19.2-19.2-19.2L531.2 652.0576l0-85.4016 125.9008 0c10.5984 0 19.2-8.6016 19.2-19.2s-8.6016-19.2-19.2-19.2L531.2 528.256l0-20.0448 185.472-219.3408c6.8608-8.0896 5.8368-20.224-2.2528-27.0592C706.2784 254.9248 694.1952 255.9744 687.3344 264.064z" p-id="18557" fill="#999999"></path></svg>