<?xml version="1.0" standalone="no"?><!DOCTYPE svg PUBLIC "-//W3C//DTD SVG 1.1//EN" "http://www.w3.org/Graphics/SVG/1.1/DTD/svg11.dtd"><svg t="1506403386676" class="icon" style="" viewBox="0 0 1024 1024" version="1.1" xmlns="http://www.w3.org/2000/svg" p-id="16480" xmlns:xlink="http://www.w3.org/1999/xlink" width="48" height="48"><defs><style type="text/css"></style></defs><path d="M870.4 64H160C108.8 64 64 102.4 64 153.6v710.4c0 57.6 44.8 96 96 96h531.2c19.2 0 32-12.8 32-32s-12.8-32-32-32H160c-19.2 0-32-12.8-32-25.6V153.6c0-12.8 12.8-25.6 32-25.6h710.4c12.8 0 25.6 12.8 25.6 25.6v601.6c0 19.2 12.8 32 32 32s32-12.8 32-32V153.6c0-51.2-38.4-89.6-89.6-89.6z" fill="#fb5e61" p-id="16481"></path><path d="M780.8 742.4c57.6-57.6 70.4-147.2 25.6-217.6-25.6-38.4-64-64-108.8-70.4-44.8-6.4-89.6 0-128 25.6-76.8 51.2-96 160-44.8 236.8 32 51.2 89.6 76.8 140.8 76.8 19.2 0 44.8-6.4 64-12.8l83.2 121.6c12.8 12.8 32 19.2 44.8 6.4 12.8-12.8 19.2-32 6.4-44.8l-83.2-121.6z m-204.8-64c-32-51.2-19.2-115.2 25.6-147.2 19.2-12.8 38.4-19.2 57.6-19.2h19.2c25.6 6.4 51.2 19.2 70.4 44.8 32 51.2 19.2 115.2-25.6 147.2-51.2 38.4-115.2 25.6-147.2-25.6zM768 288c0-19.2-12.8-32-32-32h-448c-19.2 0-32 12.8-32 32s12.8 32 32 32h448c19.2 0 32-12.8 32-32zM448 480c0-19.2-12.8-32-32-32h-128c-19.2 0-32 12.8-32 32s12.8 32 32 32h128c19.2 0 32-12.8 32-32zM390.4 640H288c-19.2 0-32 12.8-32 32s12.8 32 32 32h102.4c19.2 0 32-12.8 32-32s-12.8-32-32-32z" fill="#fb5e61" p-id="16482"></path></svg>