<?xml version="1.0" standalone="no"?><!DOCTYPE svg PUBLIC "-//W3C//DTD SVG 1.1//EN" "http://www.w3.org/Graphics/SVG/1.1/DTD/svg11.dtd"><svg t="1505205537356" class="icon" style="" viewBox="0 0 1024 1024" version="1.1" xmlns="http://www.w3.org/2000/svg" p-id="15842" xmlns:xlink="http://www.w3.org/1999/xlink" width="18" height="18"><defs><style type="text/css"></style></defs><path d="M573.76512 787.25632 349.99296 787.25632l0-17.97376c0-46.82368-38.11968-85.02656-85.06752-85.02656-46.87488 0-85.02528 38.20288-85.02528 85.02656l0 17.97376-120.8704 0C26.4576 787.25632 0 760.72448 0 728.21632L0 192.89856c0-32.50304 26.4576-58.99264 59.02976-58.99264l514.73536 0c32.54016 0 59.06304 26.4896 59.06304 58.99264l0 535.31776C632.82688 760.72448 606.30528 787.25632 573.76512 787.25632L573.76512 787.25632zM384.45056 751.43424l189.31456 0c12.85888 0 23.28192-10.42432 23.28192-23.21792L597.04704 192.89856c0-12.8448-10.42432-23.26912-23.28192-23.26912L59.02976 169.62944c-12.79488 0-23.28064 10.42432-23.28064 23.26912l0 535.31776c0 12.7936 10.48448 23.21792 23.28064 23.21792l86.4 0c8.61952-58.1376 58.99776-102.9056 119.4944-102.9056C325.4848 648.52864 375.74784 693.29664 384.45056 751.43424L384.45056 751.43424zM964.93952 787.25632l-79.62496 0 0-17.97376c0-46.82368-38.2144-85.02656-85.07008-85.02656-46.96704 0-85.05472 38.20288-85.05472 85.02656l0 17.97376-59.09248 0c-32.49792 0-59.05024-26.53184-59.05024-59.04l0-391.168c0-32.65536 26.55232-59.05536 59.05024-59.05536L831.1296 277.99296c9.02016 0 23.33312 3.7376 54.02752 32.7744 18.00448 16.95744 39.34464 40.47872 60.22528 66.20288 20.78208 25.69728 39.76448 52.06656 53.41696 74.20928C1021.36704 487.7312 1024 503.36128 1024 512.0448l0 216.17152C1024 760.72448 997.5104 787.25632 964.93952 787.25632L964.93952 787.25632zM919.74272 751.43424l45.19808 0c12.8256 0 23.31008-10.42432 23.31008-23.21792L988.25088 512.0448c0-0.4608-0.22016-9.94176-18.80064-40.352-12.2304-20.14464-29.61536-44.40064-48.81536-68.37888-19.07584-23.97696-38.88512-46.11968-55.81056-62.55232-23.2704-22.66112-32.72064-26.55744-34.42944-27.07584l-174.2976 0c-12.81536 0-23.2704 10.54848-23.2704 23.36384l0 391.168c0 12.7936 10.45504 23.21792 23.2704 23.21792l24.6528 0c8.6528-58.1376 58.93504-102.9056 119.4944-102.9056C860.7232 648.52864 911.03744 693.29664 919.74272 751.43424L919.74272 751.43424zM1024 560.76544 779.7056 560.76544c-32.65792 0-59.0848-26.4576-59.0848-58.99776l0-82.35648c0-32.56576 26.42688-59.05664 59.0848-59.05664l151.87456 0 5.3696 6.31424C951.54688 384.20736 1024 473.13408 1024 512.0448L1024 560.76544 1024 560.76544zM779.7056 396.07808c-12.91008 0-23.4304 10.45632-23.4304 23.33312l0 82.35648c0 12.76288 10.52032 23.24864 23.4304 23.24864L988.2496 525.01632l0-12.97152c0-0.5248-0.22016-11.22176-22.69184-46.57664-13.4336-21.1264-31.2832-45.56544-50.74432-69.39136L779.7056 396.0768 779.7056 396.07808zM800.24448 890.08896c-66.6304 0-120.86784-54.11072-120.86784-120.8064 0-66.54848 54.23744-120.75392 120.86784-120.75392 66.63552 0 120.7872 54.20544 120.7872 120.75392C921.03296 835.97696 866.88 890.08896 800.24448 890.08896L800.24448 890.08896zM800.24448 684.256c-46.96704 0-85.05472 38.20288-85.05472 85.02656 0 46.9376 38.08768 85.15072 85.05472 85.15072 46.8544 0 85.07008-38.21312 85.07008-85.15072C885.31456 722.45888 847.10016 684.256 800.24448 684.256L800.24448 684.256zM264.92544 890.08896c-66.63296 0-120.8064-54.11072-120.8064-120.8064 0-66.54848 54.17344-120.75392 120.8064-120.75392 66.6624 0 120.78464 54.20544 120.78464 120.75392C385.71008 835.97696 331.58784 890.08896 264.92544 890.08896L264.92544 890.08896zM264.92544 684.256c-46.90688 0-85.02528 38.20288-85.02528 85.02656 0 46.9376 38.1504 85.15072 85.02528 85.15072 46.94784 0 85.06752-38.21312 85.06752-85.15072C349.99296 722.45888 311.872 684.256 264.92544 684.256L264.92544 684.256zM264.92544 684.256" p-id="15843" fill="#999999"></path></svg>