<?xml version="1.0" encoding="utf-8"?>
<!-- Generator: Adobe Illustrator 16.0.0, SVG Export Plug-In . SVG Version: 6.00 Build 0)  -->
<!DOCTYPE svg PUBLIC "-//W3C//DTD SVG 1.1//EN" "http://www.w3.org/Graphics/SVG/1.1/DTD/svg11.dtd">
<svg version="1.1" id="图层_1" xmlns="http://www.w3.org/2000/svg" xmlns:xlink="http://www.w3.org/1999/xlink" x="0px" y="0px"
	 width="48px" height="48px" viewBox="0 0 48 48" enable-background="new 0 0 48 48" xml:space="preserve">
<path fill="#FB5E61" d="M21.555,45.098c-2.345-2.544-14.199-15.28-14.199-23.53c0-9.14,7.436-16.575,16.575-16.575
	c9.139,0,16.575,7.435,16.575,16.575c0,8.233-11.821,20.921-14.193,23.521C23.901,47.644,23.901,47.644,21.555,45.098z
	 M23.931,7.994c-7.485,0-13.575,6.09-13.575,13.575c0,7.072,8.387,16.095,13.396,21.488l0.177,0.19l0.184-0.198
	c5.009-5.396,13.392-14.424,13.392-21.48C37.506,14.084,31.416,7.994,23.931,7.994z"/>
<path fill="#FB5E61" d="M15.648,28.047c-0.141-0.563,0.095-0.938,0.704-1.125c1.688-0.421,3.21-0.983,4.57-1.688
	c0.421-0.141,0.796-0.023,1.125,0.352c0.375,0.703,0.257,1.195-0.351,1.477c-1.219,0.516-2.742,1.078-4.57,1.688
	C16.281,28.938,15.788,28.705,15.648,28.047z M18.953,17.431h0.421c0.094-0.141,0.282-0.375,0.563-0.704
	c0.234-0.282,0.421-0.516,0.563-0.704c0.468-0.563,1.008-0.657,1.617-0.282c0.421,0.47,0.468,0.938,0.141,1.407
	c-0.188,0.234-0.469,0.586-0.844,1.055c-1.22,1.641-2.039,2.742-2.461,3.304c-0.188,0.421-0.071,0.609,0.351,0.563
	c0.141,0.046,0.375,0.024,0.704-0.07c0.188-0.046,0.351-0.095,0.492-0.141c0.516-0.046,0.844,0.164,0.984,0.633
	c0.095,0.657-0.141,1.055-0.704,1.196c-0.609,0.188-1.195,0.329-1.758,0.421c-0.563,0.046-1.079,0.07-1.546,0.07
	c-0.845,0.095-1.336-0.094-1.476-0.563c-0.188-0.328-0.117-0.82,0.211-1.476c0.188-0.422,0.586-1.032,1.195-1.829
	c0.327-0.47,0.587-0.845,0.774-1.125h-1.337c-0.798,0-1.171-0.234-1.125-0.704c-0.046-0.421,0.117-0.961,0.492-1.617
	c0.141-0.188,0.516-0.75,1.125-1.688s1.008-1.524,1.195-1.758c0.375-0.563,0.89-0.726,1.547-0.492
	c0.516,0.329,0.657,0.726,0.421,1.196c-0.282,0.609-0.891,1.546-1.829,2.813c-0.188,0.188-0.258,0.329-0.211,0.421
	C18.505,17.455,18.67,17.477,18.953,17.431z M26.475,13.915h3.657c0.984,0.094,1.313,0.657,0.984,1.688
	c-0.517,1.782-1.313,3.211-2.392,4.289c0.75,0.657,1.642,1.219,2.672,1.688c0.75,0.421,1.008,0.938,0.773,1.546
	c-0.328,0.657-0.938,0.726-1.828,0.211c-1.125-0.516-2.18-1.195-3.163-2.039c-1.454,1.125-2.766,1.899-3.938,2.321
	c-0.845,0.328-1.361,0.163-1.547-0.492c-0.235-0.609,0.024-1.079,0.774-1.407c1.266-0.469,2.368-1.101,3.305-1.899
	c-0.517-0.469-0.962-1.008-1.337-1.617c-0.095,0.094-0.188,0.234-0.282,0.421c-0.141,0.188-0.282,0.375-0.421,0.563
	c-0.469,0.516-0.938,0.633-1.407,0.351c-0.563-0.329-0.633-0.821-0.212-1.476c1.031-1.266,1.829-2.696,2.392-4.289
	c0.188-0.609,0.586-0.867,1.195-0.774C26.219,13.142,26.475,13.446,26.475,13.915z M30.482,29.384
	c-2.108-0.47-4.313-0.891-6.608-1.266c-0.75-0.142-1.032-0.563-0.845-1.267c0.047-0.608,0.468-0.867,1.266-0.773
	c3.187,0.563,5.319,0.961,6.399,1.195c0.657,0.141,0.96,0.539,0.913,1.195C31.514,29.126,31.141,29.431,30.482,29.384z
	 M28.232,25.518c-0.656-0.283-1.476-0.563-2.461-0.846c-0.141-0.046-0.235-0.094-0.282-0.141c-0.608-0.094-0.845-0.469-0.703-1.125
	c0.095-0.516,0.445-0.75,1.054-0.703c1.079,0.234,2.109,0.586,3.096,1.054c0.656,0.329,0.889,0.75,0.703,1.266
	C29.404,25.681,28.937,25.844,28.232,25.518z M28.374,15.813h-2.601c-0.095,0.141-0.166,0.305-0.212,0.492
	c0.845,1.266,1.407,1.992,1.688,2.179c0.608-0.704,1.079-1.429,1.407-2.179C28.701,15.977,28.607,15.813,28.374,15.813z"/>
</svg>
