<?xml version="1.0" encoding="utf-8"?>
<!-- Generator: Adobe Illustrator 21.0.0, SVG Export Plug-In . SVG Version: 6.00 Build 0)  -->
<svg version="1.1" id="图层_1" xmlns="http://www.w3.org/2000/svg" xmlns:xlink="http://www.w3.org/1999/xlink" x="0px" y="0px"
	 viewBox="0 0 56.7 56.7" style="enable-background:new 0 0 56.7 56.7;" xml:space="preserve">
<style type="text/css">
	.st0{fill:#868686;}
</style>
<path id="grrz" class="st0" d="M28.3,9.1c0,0,3.9,3.9,7.7,4.8c2,0.5,4.1,0.7,6.2,0.7c0.8,0,1.4,0,1.4,0v6.9
	c0,23.5-15.2,26.2-15.2,26.2s-15.1-2.7-15.1-26.2v-6.9c0,0,0.5,0,1.4,0c2.1,0,4.2-0.2,6.2-0.7C24.6,13,28.3,9.1,28.3,9.1 M28.3,6.3
	c-0.5,0-1.1,0.2-1.5,0.5c-0.1,0.1-3.4,3.6-6.7,4.4c-1.8,0.4-3.7,0.6-5.5,0.6c-0.7,0-1.1,0-1.2,0c-0.1,0-0.1,0-0.2,0
	c-1.5,0-2.8,1.2-2.8,2.8v6.9c0,25.5,16.7,28.8,17.4,28.9c0.3,0.1,0.7,0.1,1,0c0.7-0.1,17.5-3.4,17.5-28.9v-6.9
	c0-1.5-1.2-2.8-2.8-2.8c-0.1,0-0.1,0-0.2,0c0,0-0.5,0-1.2,0c-1.9,0-3.7-0.2-5.5-0.6c-2.7-0.7-5.9-3.8-6.8-4.4
	C29.4,6.5,28.8,6.3,28.3,6.3L28.3,6.3L28.3,6.3z M34.2,21.2c0.5,0.5,0.5,1.4,0,1.9c0,0,0,0,0,0l-9.7,9.7c-0.5,0.5-1.4,0.5-1.9,0
	c-0.5-0.5-0.5-1.4,0-1.9l9.7-9.7C32.8,20.7,33.6,20.7,34.2,21.2L34.2,21.2z"/>
</svg>
