<?xml version="1.0" encoding="utf-8"?>
<!-- Generator: Adobe Illustrator 21.0.0, SVG Export Plug-In . SVG Version: 6.00 Build 0)  -->
<svg version="1.1" id="图层_1" xmlns="http://www.w3.org/2000/svg" xmlns:xlink="http://www.w3.org/1999/xlink" x="0px" y="0px"
	 viewBox="0 0 56.7 56.7" style="enable-background:new 0 0 56.7 56.7;" xml:space="preserve">
<style type="text/css">
	.st0{fill:#FFC426;}
</style>
<path id="形状_164" class="st0" d="M28.3,56.7C12.7,56.7,0,44,0,28.3C0,12.7,12.7,0,28.3,0C44,0,56.7,12.7,56.7,28.3l0,0
	C56.7,44,44,56.7,28.3,56.7z M34.8,20.3c0,0,0.3-4.9-2.1-7.9c-1.6-1.7-3.8-2.7-6.1-2.7c-2.6-0.1-5,1.1-6.5,3.2
	c-1.9,2.8-1.7,7.4-1.7,7.4c-0.6,0.8-0.8,1.8-0.5,2.7c0.5,1.6,1.4,1.7,1.4,1.7c0.2,1,0.6,1.9,1.2,2.7c0.8,0.6,1.5,1.1,1.6,2.3
	c0.1,1.5,0.1,2.4-1.8,3.6c-2.5,1.6-7,1.2-7.5,4.7c-0.4,3-0.1,5.1,0.4,5.5c0.8,0.7,9.4,1.6,13.4,1.6c2.8,0,5.6-0.2,8.3-0.7
	c-3.8-1.8-4.9-4.2-5.3-6c-0.8-2.9-0.1-6,1.8-8.3c0.7-1,0.5-1.9,1.3-2.6c0.6-0.8,1-1.7,1.2-2.7c0,0,1.3-0.3,1.5-2.3
	C35.6,21.6,35.4,20.8,34.8,20.3z M39.6,27.6c-4.4,0-8,3.6-8,8s3.6,8,8,8c4.4,0,8-3.6,8-8c0,0,0,0,0,0C47.6,31.2,44,27.6,39.6,27.6z
	 M43.6,36.8L43.6,36.8l-2.9-0.1v2.8c0,0.7-0.5,1.3-1.2,1.3c0,0,0,0-0.1,0c-0.7,0-1.2-0.6-1.2-1.2c0,0,0-0.1,0-0.1v-2.8h-2.5
	c-0.6,0.1-1.2-0.4-1.3-1c0,0,0-0.1,0-0.1c0-0.7,0.6-1.3,1.3-1.3h2.5v-2.7c-0.1-0.7,0.4-1.3,1.1-1.3c0,0,0.1,0,0.1,0
	c0.7,0,1.2,0.6,1.2,1.3c0,0,0,0,0,0.1v2.7h2.9c0.7,0,1.3,0.6,1.3,1.3C44.9,36.3,44.3,36.8,43.6,36.8C43.6,36.8,43.6,36.8,43.6,36.8
	L43.6,36.8L43.6,36.8z"/>
</svg>
