<?xml version="1.0" standalone="no"?><!DOCTYPE svg PUBLIC "-//W3C//DTD SVG 1.1//EN" "http://www.w3.org/Graphics/SVG/1.1/DTD/svg11.dtd"><svg t="1514456392886" class="icon" style="" viewBox="0 0 1024 1024" version="1.1" xmlns="http://www.w3.org/2000/svg" p-id="2400" xmlns:xlink="http://www.w3.org/1999/xlink" width="32" height="32"><defs><style type="text/css"></style></defs><path d="M257.536 789.504c-13.824 0-25.088-11.264-25.6-25.088V101.888c0-14.336 11.264-25.6 25.6-25.6h662.016c13.824 0 25.088 11.264 25.6 25.088v662.528c0 13.824-11.264 25.088-25.088 25.6H257.536m0 76.8h662.016c56.32 0 101.888-45.568 101.888-101.376V101.888c0-56.32-45.568-101.888-101.888-101.888H257.536c-56.32 0-101.888 45.568-101.888 101.376v662.528c0 56.32 45.568 101.888 101.888 102.4z" p-id="2401" fill="#1296db"></path><path d="M722.944 261.12c-12.288-18.944-29.696-33.792-52.224-44.544-22.528-10.752-48.64-16.384-78.336-16.384-31.744 0-59.392 6.656-83.456 19.456-24.064 12.8-41.984 29.696-54.272 49.152s-18.432 39.424-18.432 58.88c0 9.216 4.096 17.92 11.776 26.112 7.68 8.192 17.408 12.288 28.672 12.288 19.456 0 32.256-11.264 39.424-34.304 7.168-22.016 16.384-38.912 27.136-50.176 10.752-11.264 27.136-16.896 49.664-16.896 18.944 0 34.816 5.632 47.104 16.896 12.288 11.264 18.432 25.088 18.432 41.472 0 8.192-2.048 15.872-6.144 23.04-4.096 7.168-8.704 13.824-14.848 19.456-5.632 5.632-15.36 14.336-28.16 25.6-14.848 12.8-26.624 24.064-35.328 33.792-8.704 9.728-15.872 20.992-20.992 32.768-5.12 12.288-8.192 27.136-8.192 44.544 0 13.824 3.584 24.064 10.752 30.72 7.168 7.168 16.384 10.24 26.624 10.24 20.48 0 32.256-10.752 36.352-31.744 2.048-10.24 4.096-16.896 5.12-20.992 1.024-4.096 2.56-8.192 4.608-11.776 2.048-4.096 5.12-8.192 9.216-13.312 4.096-4.608 9.728-10.24 16.896-16.896 25.088-22.528 42.496-38.4 52.224-47.616 9.728-9.216 17.92-20.48 25.088-33.792 7.168-12.8 10.752-28.16 10.752-45.568-0.512-21.504-6.656-41.984-19.456-60.416z m-137.728 307.712c-13.824 0-25.6 4.608-35.328 13.824-9.728 9.216-14.336 20.992-14.336 34.304 0 15.36 5.12 27.136 14.848 35.84 9.728 8.704 21.504 12.8 34.816 12.8 12.8 0 24.064-4.096 33.792-12.8 9.728-8.704 14.848-20.48 14.848-35.84 0-13.824-4.608-25.088-13.824-34.304-9.728-9.216-20.992-13.824-34.816-13.824z" p-id="2402" fill="#1296db"></path><path d="M104.96 942.592c-13.824 0-25.088-11.264-25.6-25.088V254.976c0-14.336 11.264-25.6 25.6-25.6h50.688l27.648 598.528 609.28 38.4v50.688c0 13.824-11.264 25.088-25.088 25.6H104.96m0 76.288h662.016c56.32 0 101.888-45.568 101.888-101.376V800.256H231.936V153.088H104.96C48.64 153.088 3.072 198.656 3.072 254.464v662.528c0 56.32 45.056 101.888 101.888 101.888-0.512 0 0 0 0 0z" p-id="2403" fill="#1296db"></path></svg>