<?xml version="1.0" encoding="utf-8"?>
<!-- Generator: Adobe Illustrator 15.0.0, SVG Export Plug-In . SVG Version: 6.00 Build 0)  -->
<!DOCTYPE svg PUBLIC "-//W3C//DTD SVG 1.1//EN" "http://www.w3.org/Graphics/SVG/1.1/DTD/svg11.dtd">
<svg version="1.1" id="图层_1" xmlns="http://www.w3.org/2000/svg" xmlns:xlink="http://www.w3.org/1999/xlink" x="0px" y="0px"
	 width="33.281px" height="44.281px" viewBox="0 0 33.281 44.281" enable-background="new 0 0 33.281 44.281" xml:space="preserve">
<path id="Pointer" fill="#878787" d="M16.8,2.773c9.466,0,13.7,7.09,13.7,14.117c0,6.19-4.422,14.408-13.145,24.424
	c-0.057,0.055-0.118,0.104-0.183,0.148c-0.064-0.045-0.126-0.094-0.184-0.148l-0.72-0.832C10.569,33.967,2.78,25.043,2.78,16.89
	C2.855,9.162,9.073,2.901,16.8,2.773 M16.8,0.006C7.552,0.155,0.106,7.642,0.007,16.89c0,9.586,8.925,19.39,14.929,26.281
	c0.566,0.627,1.348,1.02,2.188,1.101h0.105c0.839-0.082,1.618-0.474,2.183-1.101c5.635-6.464,13.857-17.122,13.857-26.281
	C33.269,7.731,27.269,0.006,16.8,0.006L16.8,0.006z M16.626,11.09c3.073-0.018,5.578,2.459,5.597,5.532
	c0.018,3.073-2.46,5.578-5.532,5.596c-3.082-0.023-5.576-2.512-5.608-5.594C11.089,13.566,13.569,11.092,16.626,11.09 M16.69,8.385
	c-4.584,0.01-8.293,3.733-8.283,8.317s3.733,8.292,8.317,8.282c4.577-0.009,8.282-3.722,8.282-8.299
	C25.002,12.097,21.278,8.38,16.69,8.385L16.69,8.385z"/>
<path fill="#FFFFFF" stroke="#000000" stroke-miterlimit="10" d="M16.69,22.218"/>
</svg>
