<?xml version="1.0" standalone="no"?><!DOCTYPE svg PUBLIC "-//W3C//DTD SVG 1.1//EN" "http://www.w3.org/Graphics/SVG/1.1/DTD/svg11.dtd"><svg t="1511427424604" class="icon" style="" viewBox="0 0 1024 1024" version="1.1" xmlns="http://www.w3.org/2000/svg" p-id="16704" xmlns:xlink="http://www.w3.org/1999/xlink" width="32" height="32"><defs><style type="text/css"></style></defs><path d="M883.577 326.43a23.997 23.997 0 0 0-20.713-4.249l-87.083 22.594c-12.83 3.329-20.532 16.428-17.203 29.258 3.329 12.831 16.433 20.532 29.258 17.204l57.056-14.804v379.081l-190.099 58.908V628.883c0-13.255-10.745-24-24-24s-24 10.745-24 24v185.539l-191.026-59.196V628.883c0-13.255-10.745-24-24-24s-24 10.745-24 24v126.919l-189.169 58.62V422.587l65.227-17.884c12.783-3.504 20.304-16.708 16.8-29.492-3.505-12.783-16.708-20.303-29.492-16.8l-82.88 22.724a24 24 0 0 0-17.654 23.146v442.703a23.997 23.997 0 0 0 24.002 24c2.38 0 4.774-0.354 7.103-1.075l230.994-71.581 230.994 71.581a23.996 23.996 0 0 0 14.207 0l238.099-73.782a23.998 23.998 0 0 0 16.896-22.925v-427.79a24.007 24.007 0 0 0-9.317-18.982z" fill="#999999" p-id="16705"></path><path d="M425.266 547.856c38.821 36.452 72.841 56.708 74.271 57.553a23.982 23.982 0 0 0 12.208 3.337 23.99 23.99 0 0 0 12.177-3.318c1.434-0.845 35.573-21.102 74.458-57.559 52.018-48.771 88.032-103.894 104.159-159.416 6.479-20.062 9.765-40.794 9.765-61.634 0-110.589-89.971-200.56-200.559-200.56-110.589 0-200.56 89.971-200.56 200.56 0 20.842 3.285 41.575 9.765 61.636 16.304 55.512 52.374 110.628 104.316 159.401z m86.479-373.597c84.122 0 152.559 68.438 152.559 152.56 0 15.989-2.557 31.924-7.598 47.363a25.12 25.12 0 0 0-0.39 1.319C629.129 468.411 543.68 534.206 511.74 556.12c-31.87-21.859-116.948-87.41-144.583-180.675a24.001 24.001 0 0 0-0.375-1.264c-5.042-15.438-7.598-31.373-7.598-47.363 0.001-84.121 68.439-152.559 152.561-152.559z" fill="#999999" p-id="16706"></path><path d="M511.744 423.436c53.742 0 97.465-43.722 97.465-97.464s-43.723-97.465-97.465-97.465-97.464 43.723-97.464 97.465 43.722 97.464 97.464 97.464z m0-146.929c27.275 0 49.465 22.19 49.465 49.465s-22.189 49.464-49.465 49.464c-27.275 0-49.464-22.189-49.464-49.464s22.189-49.465 49.464-49.465z" fill="#999999" p-id="16707"></path></svg>