<?xml version="1.0" encoding="utf-8"?>
<!-- Generator: Adobe Illustrator 15.0.0, SVG Export Plug-In . SVG Version: 6.00 Build 0)  -->
<!DOCTYPE svg PUBLIC "-//W3C//DTD SVG 1.1//EN" "http://www.w3.org/Graphics/SVG/1.1/DTD/svg11.dtd">
<svg version="1.1" id="图层_1" xmlns="http://www.w3.org/2000/svg" xmlns:xlink="http://www.w3.org/1999/xlink" x="0px" y="0px"
	 width="110.031px" height="106.879px" viewBox="0 0 110.031 106.879" enable-background="new 0 0 110.031 106.879"
	 xml:space="preserve">
<path id="Dropbox_拷贝_2" fill="#878787" d="M74.6,78.19c-0.761,0.002-1.5-0.252-2.101-0.72l-17.494-13.5l-17.573,13.5
	c-1.167,0.897-2.774,0.954-4,0.14L3.987,57.901c-1.587-1.066-2.01-3.217-0.944-4.803c0.201-0.299,0.447-0.564,0.729-0.787L19,40.3
	L1.23,25.31c-1.461-1.24-1.64-3.43-0.399-4.891c0.228-0.269,0.495-0.501,0.793-0.688L32.3,0.51c1.246-0.775,2.847-0.675,3.986,0.25
	L55.02,15.98L73.757,0.76c1.14-0.925,2.74-1.025,3.986-0.25l30.671,19.22c1.621,1.022,2.105,3.165,1.084,4.785
	c-0.188,0.299-0.422,0.567-0.69,0.795l-17.779,15l15.155,12c1.498,1.191,1.748,3.371,0.558,4.87c-0.222,0.278-0.484,0.521-0.78,0.72
	L76.516,77.61C75.948,77.987,75.282,78.188,74.6,78.19z M11.762,54.79l23.444,15.701l13.773-10.59L24.68,44.61L11.762,54.79z
	 M61.035,59.911L74.741,70.48L98.19,54.79L85.341,44.61L61.035,59.911z M30.848,40.34L55.013,55.54L79.177,40.34L55.013,24.55
	L30.848,40.34z M60.857,20.12L85.308,36.1l15.437-13.02L76.173,7.68L60.857,20.12z M9.285,23.08L24.718,36.1l24.45-15.98
	L33.856,7.68L9.285,23.08z M55.013,106.89c-0.636,0-1.26-0.177-1.801-0.511L18.586,86.68c-1.021-0.633-1.643-1.748-1.64-2.949
	L17,64.911c0-1.91,1.485,1.51,3.389,1.51c1.945,0.006,3.539,1.545,3.611,3.49v12l31.012,17.469L86,81.911v-14
	c0-1.91,1.336-3.891,3.239-3.891S93,63,93,64.911v19c-0.135,1.197-0.873,2.242-1.957,2.77l-34.224,19.699
	c-0.543,0.334-1.167,0.511-1.804,0.511H55.013z M54.794,105.51c-1.899,0-2.8-1.689-2.8-3.6v-42c0-1.91,0.895-2.99,2.8-2.99
	c1.906,0,3.2,2.08,3.2,3.99v41c0.124,1.863-1.286,3.473-3.149,3.597c-0.015,0.001-0.029,0.002-0.045,0.003H54.794z"/>
</svg>
