<?xml version="1.0" encoding="utf-8"?>
<!-- Generator: Adobe Illustrator 21.0.0, SVG Export Plug-In . SVG Version: 6.00 Build 0)  -->
<svg version="1.1" id="图层_1" xmlns="http://www.w3.org/2000/svg" xmlns:xlink="http://www.w3.org/1999/xlink" x="0px" y="0px"
	 viewBox="0 0 48 48" style="enable-background:new 0 0 48 48;" xml:space="preserve">
<style type="text/css">
	.st0{fill:#173199;}
</style>
<path class="st0" d="M40.8,3H7.5C5.1,3,3,4.8,3,7.2v33.3C3,43.2,5.1,45,7.5,45h24.9c0.9,0,1.5-0.6,1.5-1.5S33.3,42,32.4,42H7.5
	C6.6,42,6,41.4,6,40.8V7.2C6,6.6,6.6,6,7.5,6h33.3C41.4,6,42,6.6,42,7.2v28.2c0,0.9,0.6,1.5,1.5,1.5s1.5-0.6,1.5-1.5V7.2
	C45,4.8,43.2,3,40.8,3z"/>
<path class="st0" d="M36,13.5c0-0.9-0.6-1.5-1.5-1.5h-21c-0.9,0-1.5,0.6-1.5,1.5s0.6,1.5,1.5,1.5h21C35.4,15,36,14.4,36,13.5z
	 M25.6,22.5c0-0.9-0.9-1.5-2.3-1.5h-9.1c-1.4,0-2.3,0.6-2.3,1.5s0.9,1.5,2.3,1.5h9.1C24.7,24,25.6,23.4,25.6,22.5z M20.4,30H14
	c-1.2,0-2,0.6-2,1.5s0.8,1.5,2,1.5h6.4c1.2,0,2-0.6,2-1.5S21.6,30,20.4,30z"/>
<path class="st0" d="M34.6,31.7v2.9h5.1c0.6,0,1,0.5,1,1c0,0.6-0.5,1-1,1h-5.1v3.2c0,0.6-0.5,1-1,1s-1-0.5-1-1v-3.2h-5.1
	c-0.6,0-1-0.5-1-1c0-0.6,0.5-1,1-1h5.1v-2.9h-5.1c-0.6,0-1-0.5-1-1s0.5-1,1-1h4.7L26.8,25c-0.4-0.4-0.5-1-0.1-1.4
	c0.4-0.4,1-0.5,1.4-0.1l5.4,4.7l5.4-4.7c0.4-0.4,1.1-0.3,1.4,0.1c0.4,0.4,0.3,1.1-0.1,1.4L35,29.6h4.7c0.6,0,1,0.5,1,1
	c0,0.6-0.5,1-1,1L34.6,31.7L34.6,31.7z"/>
</svg>
