<?xml version="1.0" encoding="utf-8"?>
<!-- Generator: Adobe Illustrator 15.0.0, SVG Export Plug-In . SVG Version: 6.00 Build 0)  -->
<!DOCTYPE svg PUBLIC "-//W3C//DTD SVG 1.1//EN" "http://www.w3.org/Graphics/SVG/1.1/DTD/svg11.dtd">
<svg version="1.1" id="图层_1" xmlns="http://www.w3.org/2000/svg" xmlns:xlink="http://www.w3.org/1999/xlink" x="0px" y="0px"
	 width="272px" height="272px" viewBox="0 0 272 272" enable-background="new 0 0 272 272" xml:space="preserve">
<path id="圆角矩形_11_拷贝_2" fill="#878787" d="M136,272C60.889,272,0,211.111,0,136C0,60.889,60.889,0,136,0
	c75.111,0,136,60.889,136,136C272,211.111,211.111,272,136,272z M136.5,17C70.502,17,17,70.502,17,136.5S70.502,256,136.5,256
	S256,202.498,256,136.5S202.498,17,136.5,17L136.5,17z M152.18,150h32.32c4.694,0,8.5,3.806,8.5,8.5s-3.806,8.5-8.5,8.5H145v60.5
	c0,4.694-3.806,8.5-8.5,8.5s-8.5-3.806-8.5-8.5V167H89.5c-4.694,0-8.5-3.806-8.5-8.5s3.806-8.5,8.5-8.5h32.683L73.164,65.73
	c-2.345-4.032-0.978-9.201,3.054-11.546c0.025-0.015,0.051-0.03,0.077-0.044c4.086-2.351,9.303-0.967,11.686,3.1l49.246,84.66
	l48.801-84.53c2.375-4.05,7.582-5.407,11.632-3.033c4.011,2.352,5.388,7.49,3.09,11.533L152.18,150z"/>
</svg>
