<?xml version="1.0" standalone="no"?><!DOCTYPE svg PUBLIC "-//W3C//DTD SVG 1.1//EN" "http://www.w3.org/Graphics/SVG/1.1/DTD/svg11.dtd"><svg t="1511595562028" class="icon" style="" viewBox="0 0 1024 1024" version="1.1" xmlns="http://www.w3.org/2000/svg" p-id="2418" xmlns:xlink="http://www.w3.org/1999/xlink" width="24" height="24"><defs><style type="text/css"></style></defs><path d="M512 56.888889C260.650667 56.888889 56.888889 260.650667 56.888889 512s203.761778 455.111111 455.111111 455.111111 455.111111-203.761778 455.111111-455.111111S763.349333 56.888889 512 56.888889z m0 867.555555C284.572444 924.444444 99.555556 739.427556 99.555556 512S284.572444 99.555556 512 99.555556s412.444444 185.016889 412.444444 412.444444-185.016889 412.444444-412.444444 412.444444z" p-id="2419" fill="#ffffff"></path><path d="M726.200889 297.799111a21.333333 21.333333 0 0 0-30.165333 0L512 481.834667l-184.021333-184.035556a21.333333 21.333333 0 1 0-30.165334 30.165333L481.834667 512l-184.035556 184.021333A21.333333 21.333333 0 0 0 312.888889 732.444444c5.461333 0 10.922667-2.076444 15.089778-6.243555L512 542.165333 696.021333 726.186667c4.167111 4.181333 9.628444 6.257778 15.089778 6.257777s10.922667-2.076444 15.089778-6.243555a21.333333 21.333333 0 0 0 0-30.165333L542.165333 512 726.186667 327.978667a21.347556 21.347556 0 0 0 0.014222-30.179556z" p-id="2420" fill="#ffffff"></path></svg>