<?xml version="1.0" standalone="no"?><!DOCTYPE svg PUBLIC "-//W3C//DTD SVG 1.1//EN" "http://www.w3.org/Graphics/SVG/1.1/DTD/svg11.dtd"><svg t="1506392374790" class="icon" style="" viewBox="0 0 1024 1024" version="1.1" xmlns="http://www.w3.org/2000/svg" p-id="6558" xmlns:xlink="http://www.w3.org/1999/xlink" width="48" height="48"><defs><style type="text/css"></style></defs><path d="M536.242 35.293c65.361 1.342 141.274 22.119 211.939 62.046 12.207 6.899 17.949 18.782 15.624 31.466-2.396 13.089-11.891 22.399-25.189 24.507-7.689 1.219-14.587-1.181-21.188-4.927-38.752-21.984-80.025-37.199-123.674-46.02-185.792-37.54-376.463 58.507-457.41 230.377-32.759 69.555-45.32 142.702-38.129 219.101 17.262 183.458 155.461 334.51 337.058 368.919 220.946 41.862 435.132-98.289 484.403-317.973 22.818-101.74 8.578-198.99-40.978-290.873-4.737-8.779-9.611-17.329-7.309-27.894 2.757-12.652 12.422-21.74 25.354-23.726 11.652-1.794 23.559 4.158 29.972 15.349 17.53 30.61 31.475 62.788 41.781 96.53 80.755 264.483-79.275 541.473-348.706 603.574-254.334 58.619-510.085-100.167-570.124-353.966C-10.415 367.821 143.45 113.78 396.387 49.309c39.422-10.055 79.564-14.645 139.858-14.014z" p-id="6559" fill="#ffffff"></path><path d="M482.974 570.959v-59.652h-7.4c-36.421 0-72.845 0.078-109.269-0.033-20.156-0.062-33.421-14.287-31.494-33.4 1.54-15.254 14.38-26.127 31.404-26.189 32.1-0.111 64.203-0.033 96.303-0.038h8.381c-2.284-2.47-3.626-4.025-5.079-5.478-40.295-40.317-80.627-80.597-120.892-120.94-11.068-11.093-13.172-25.469-5.775-37.664 9.198-15.171 29.358-19.048 43.48-8.281 2.276 1.737 4.318 3.807 6.35 5.841 39.735 39.711 79.469 79.424 119.126 119.211 1.567 1.573 2.367 3.915 3.527 5.898 0.864-0.255 1.724-0.515 2.588-0.77 1.366-1.812 2.535-3.814 4.125-5.404 40.126-40.195 80.341-80.296 120.41-120.55 8.569-8.61 18.497-12.315 30.257-9.33 22.476 5.704 29.722 33.095 13.274 50.024-12.043 12.396-24.407 24.481-36.631 36.705-28.227 28.231-56.445 56.47-84.717 84.655-1.567 1.564-3.619 2.65-5.445 3.96l1.05 2.123h6.305c32.306 0 64.615-0.066 96.921 0.029 16.502 0.051 28.14 9.162 31.347 24.156 3.396 15.871-7.61 32.186-23.613 34.808-3.228 0.527-6.553 0.63-9.833 0.634-35.598 0.04-71.2 0.029-106.799 0.029h-7.693v59.652h7.549c37.245 0.004 74.493-0.091 111.738 0.062 14.204 0.058 25.473 9.623 28.561 23.544 2.917 13.172-3.688 27.206-16.209 32.693-4.547 1.991-9.902 2.964-14.9 2.997-36.628 0.243-73.255 0.132-109.887 0.132h-7.257v7.919c-0.004 37.038 0.066 74.082-0.051 111.121-0.04 12.776-6.174 22.161-17.777 27.239-11.097 4.857-21.835 3.186-31.187-4.647-7.582-6.355-10.557-14.855-10.54-24.654 0.07-36.421 0.029-72.845 0.029-109.269v-7.705h-6.738c-37.451-0.004-74.906 0.07-112.355-0.051-12.845-0.04-23.704-7.919-27.906-19.652-4.131-11.531-0.744-24.555 8.557-32.577 6.043-5.215 13.121-7.214 21.075-7.191 36.628 0.111 73.259 0.051 109.887 0.051 2.207-0.004 4.428-0.004 7.202-0.004z" p-id="6560" fill="#ffffff"></path></svg>