<?xml version="1.0" standalone="no"?><!DOCTYPE svg PUBLIC "-//W3C//DTD SVG 1.1//EN" "http://www.w3.org/Graphics/SVG/1.1/DTD/svg11.dtd"><svg t="1513675755784" class="icon" style="" viewBox="0 0 1024 1024" version="1.1" xmlns="http://www.w3.org/2000/svg" p-id="2912" xmlns:xlink="http://www.w3.org/1999/xlink" width="32" height="32"><defs><style type="text/css"></style></defs><path d="M511.96416 1024C359.79264 1024 76.8 795.47904 76.8 579.3792V148.90496l43.26912-0.70656c0.91648 0 97.5104-2.01728 197.17632-41.71776 102.21056-40.76544 168.1408-87.56736 168.76032-88.00256L511.83616 0l26.05568 18.47808c0.61952 0.4608 66.54976 47.23712 168.76544 88.00768 99.66592 39.70048 196.25472 41.71776 197.2736 41.71776l43.06944 0.70656 0.19968 430.46912c0.0256 216.07424-282.96704 444.6208-435.23584 444.6208zM164.67456 231.41376v347.93984c0 167.08608 246.50752 358.36416 347.2896 358.36416 100.80256 0 347.2896-191.27808 347.2896-358.36416V231.41376c-43.06944-4.57216-112.98816-16.11776-185.60512-45.04576-74.42432-29.70624-130.944-61.99296-161.70496-81.22368-30.6688 19.23072-87.26016 51.51744-161.6128 81.22368-72.66816 28.9536-142.61248 40.47872-185.65632 45.04576z" fill="#dddddd" p-id="2913"></path><path d="M588.93312 405.28896c0-43.8016-27.1104-74.46016-80.59904-74.46016-38.83008 0-73.2672 18.2528-106.23488 54.02112l-48.3584-44.52864c42.496-46.72 94.5152-78.84288 164.1216-78.84288 90.84928 0 152.39168 50.37056 152.39168 137.24672 0 110.96064-145.06496 129.9456-129.68448 237.25568H465.8432c-19.78368-120.45824 123.08992-151.1168 123.08992-230.69184z m-84.8896 264.59136c27.10016 0 48.34816 17.9968 48.34816 46.0544 0 28.0576-21.248 46.58688-48.34816 46.58688s-47.8208-18.52928-47.8208-46.58688 20.72064-46.0544 47.8208-46.0544z" fill="#dddddd" p-id="2914"></path></svg>