<?xml version="1.0" encoding="utf-8"?>
<!-- Generator: Adobe Illustrator 21.0.0, SVG Export Plug-In . SVG Version: 6.00 Build 0)  -->
<svg version="1.1" id="图层_1" xmlns="http://www.w3.org/2000/svg" xmlns:xlink="http://www.w3.org/1999/xlink" x="0px" y="0px"
	 viewBox="0 0 56.7 56.7" style="enable-background:new 0 0 56.7 56.7;" xml:space="preserve">
<style type="text/css">
	.st0{fill:#868686;}
</style>
<path id="_" class="st0" d="M28.7,47.8c-0.3,0.1-0.6,0.1-0.8,0c-0.6-0.1-15-3-15-25.6v-6.1c0-0.7,0.3-1.3,0.8-1.8
	c0.4-0.4,1-0.7,1.6-0.7c0.1,0,0.1,0,0.2,0c0,0,0.4,0,1,0c1.6,0,3.2-0.2,4.8-0.5c2.8-0.7,5.7-3.8,5.8-3.9c0.8-0.5,1.9-0.5,2.6,0
	c0.8,0.6,3.5,3.3,5.9,3.9c1.6,0.4,3.2,0.5,4.8,0.5c0.6,0,1,0,1,0c0.1,0,0.1,0,0.2,0c0.6,0,1.2,0.2,1.6,0.7c0.5,0.5,0.8,1.1,0.8,1.8
	v6.1C43.8,44.8,29.3,47.7,28.7,47.8z M27.1,38.4c0.3,0.3,0.8,0.5,1.2,0.5c0.5,0,0.9-0.2,1.2-0.5c0.3-0.3,0.5-0.8,0.5-1.2
	c0-0.4-0.2-0.9-0.5-1.2c-0.3-0.3-0.8-0.5-1.2-0.5c-0.5,0-0.9,0.2-1.2,0.5c-0.3,0.3-0.5,0.7-0.5,1.2C26.6,37.6,26.8,38,27.1,38.4
	L27.1,38.4z M33.1,19.6c-1.2-1.1-2.8-1.6-4.4-1.5c-1.8-0.1-3.5,0.6-4.8,1.9c-1.2,1.3-1.8,3-1.7,4.8h2.3c-0.1-1.2,0.3-2.3,0.9-3.3
	c0.8-1,1.9-1.5,3.2-1.4c1-0.1,2.1,0.3,2.8,1c0.7,0.7,1,1.7,0.9,2.6c0,0.8-0.3,1.6-0.8,2.3c-0.3,0.3-0.6,0.6-1,1
	c-1.2,0.9-2.1,2-2.9,3.3c-0.4,0.8-0.6,1.6-0.5,2.5v0.7h2.3v-0.7c0-0.7,0.2-1.5,0.5-2.1c0.3-0.6,0.8-1.1,1.3-1.5
	c0.8-0.7,1.6-1.4,2.3-2.2c0.7-1,1.1-2.1,1.1-3.3C34.8,22.1,34.2,20.6,33.1,19.6L33.1,19.6L33.1,19.6z"/>
</svg>
