<?xml version="1.0" encoding="iso-8859-1"?>
<svg version="1.1" xmlns="http://www.w3.org/2000/svg" xmlns:xlink="http://www.w3.org/1999/xlink" x="0px" y="0px"
	width="16.000000pt" height="16.000000pt"
	 viewBox="0 0 552 552" style="enable-background:new 0 0 552 552;" xml:space="preserve">
	<g id="circle">
		<path style="fill:none;stroke:#000000;stroke-width:8;stroke-miterlimit:10;" d="M342.732,100.494
			c33.088,13.79,61.454,36.644,81.995,65.46"/>
		<path style="fill:none;stroke:#000000;stroke-width:8;stroke-miterlimit:10;" d="M122.25,155.539
			c26.119-31.782,62.327-54.959,103.728-64.635"/>
		<path style="fill:none;stroke:#000000;stroke-width:8;stroke-miterlimit:10;" d="M83.071,315.769
			c-2.668-12.7-4.071-25.866-4.071-39.36c0-6.011,0.278-11.957,0.823-17.825"/>
		<path style="fill:none;stroke:#000000;stroke-width:8;stroke-miterlimit:10;" d="M213.381,458.509
			c-33.415-10.285-62.91-29.515-85.691-54.895"/>
		<path style="fill:none;stroke:#000000;stroke-width:8;stroke-miterlimit:10;" d="M460,276.409
			c0,99.871-76.853,181.792-174.645,189.85"/>
		<path style="fill:none;stroke:#000000;stroke-width:8;stroke-miterlimit:10;" d="M449.543,213.191
			c1.676,4.599,3.179,9.281,4.503,14.038"/>
	</g>
	<g id="dot">
		<path style="fill:#000000;" d="M346,57.33c5.85,10.08,0.57,24.83-2,32c-4.99,13.93-13.93,22.14-19,26.67
			c-2.21,1.97-10.69,9.33-24.33,14.67c-11.33,4.43-26.1,10.11-41.34,4.66c-14.75-5.27-29.8-20.46-29.33-38
			c0.45-17.06,15.36-28.09,23.33-34C284.33,40.39,334.68,37.83,346,57.33z"/>
	</g>
	<g id="line">
		<path style="fill:#000000;" d="M447.33,180c7.76,12.8-4,40-4,40s-24.79-1.21-47.33-6c3.51-10.23,8.49-12.32,7.33-19.33
			c-1.16-7.01-4.4-7.43-6-8.67c-15.77-2.11-36.42-4.16-60.66-4.67c-0.74-0.01-1.64-0.03-2.71-0.04
			c-41.03-0.57-85.29,5.38-85.29,5.38C211.46,191.7,179.43,196.04,146,210c-15.93,6.65-26.03,10.87-37.33,20.67
			c-15.05,13.04-16.8,22.61-26,23.33c-14.01,1.1-28.54-19.6-32.67-37.33c-1.34-5.76-4.31-18.89,2.67-30
			c1.8-2.88,6.44-9.07,28.66-16.67c26.66-7.37,60.01-16.07,107.34-20c47.32-3.93,94.84-2.74,124.66,0
			C358.48,154.14,440.08,168.04,447.33,180z"/>
	</g>
	<g id="main">
		<path style="fill:#000000;" d="M448,229.301c-62.667-7.968-94.667-10.635-153.333-7.968S200,232.751,151.333,254.042
			S72,336,72,365.333C68.667,394,72,428,90,452c10.667,22.667,52,48,79.333,51.333s46.035-0.365,69.333-13.333s52-28.667,86-67.333
			s48.889-69.333,73.333-104c9.778-18.667,29.333-56,29.333-56S501.333,276,552,317.333v-66C552,251.333,510.667,237.269,448,229.301
			z M307.333,376c-31.333,41.333-60,79.333-111.333,92.667s-81.333-36-68.667-76.667s38.667-83.333,76-104.667S282,262,282,262
			s80-18,92-3.333C377.333,270,338.667,334.667,307.333,376z"/>
	</g>
</svg>
