<?xml version="1.0" standalone="no"?><!DOCTYPE svg PUBLIC "-//W3C//DTD SVG 1.1//EN" "http://www.w3.org/Graphics/SVG/1.1/DTD/svg11.dtd"><svg t="1505205516531" class="icon" style="" viewBox="0 0 1024 1024" version="1.1" xmlns="http://www.w3.org/2000/svg" p-id="14989" xmlns:xlink="http://www.w3.org/1999/xlink" width="18" height="18"><defs><style type="text/css"></style></defs><path d="M796.459169 409.804457l184.214559-128.987746L664.164097 104.07638l-152.163585 106.546641L359.835903 104.07638 43.325249 280.81671l184.214559 128.987746L43.325249 538.793226l163.721829 91.422176 0 162.818249 302.898635 126.889969 304.945247-126.889969L814.89096 631.365598l165.782767-92.572372L796.459169 409.804457zM911.41841 535.271006 666.371368 672.104441l-122.258485-85.605703 220.23289-154.208151L911.41841 535.271006zM512.000512 564.012607 291.766598 409.804457l220.233913-154.209174 220.23289 154.209174L512.000512 564.012607zM666.371368 147.502425l245.047042 136.834458L764.345774 387.318326 544.113907 233.109152 666.371368 147.502425zM112.58159 284.337907 357.627608 147.502425l122.259508 85.606727L259.65218 387.318326 112.58159 284.337907zM259.65218 432.290587l220.233913 154.209174-122.258485 85.605703L112.58159 535.271006 259.65218 432.290587zM778.051937 768.644171 509.985622 879.889835l-266.099521-111.192452L243.886101 650.785903l115.949802 64.745606 152.164608-106.546641 152.163585 106.545618 113.88784-63.594387L778.051937 768.644171z" p-id="14990" fill="#999999"></path></svg>