<?xml version="1.0" encoding="utf-8"?>
<!-- Generator: Adobe Illustrator 16.0.0, SVG Export Plug-In . SVG Version: 6.00 Build 0)  -->
<!DOCTYPE svg PUBLIC "-//W3C//DTD SVG 1.1 Tiny//EN" "http://www.w3.org/Graphics/SVG/1.1/DTD/svg11-tiny.dtd">
<svg version="1.1" baseProfile="tiny" id="图层_1"
	 xmlns="http://www.w3.org/2000/svg" xmlns:xlink="http://www.w3.org/1999/xlink" x="0px" y="0px" width="317px" height="192px"
	 viewBox="0 0 317 192" xml:space="preserve">
<path fill-rule="evenodd" fill="#4E349F" d="M244.841,58.052c2.133-3.282,3.792-6.09,6.419-8.231
	c0.994-0.807,0.739-1.799,0.745-2.755c0.026-4.459-0.028-8.918,0.022-13.376c0.05-4.026,1.996-5.859,6.357-5.872
	c13.168-0.037,26.339-0.038,39.511,0c4.415,0.013,6.351,1.784,6.357,5.854c0.038,18.728,0.038,37.456-0.003,56.184
	c-0.007,4.008-1.977,5.71-6.492,5.721c-13.063,0.032-26.124,0.03-39.188,0c-4.615-0.009-6.509-1.759-6.543-5.986
	c-0.044-5.35-0.052-10.702,0.016-16.052c0.021-1.564-0.263-2.787-1.66-3.919c-2.206-1.785-3.629-4.174-5.302-6.744
	c-1.811,2.158-2.446,4.638-3.579,6.877c-2.591,5.119-4.774,10.46-9.613,14.312c-1.015,0.807-0.756,1.788-0.763,2.736
	c-0.024,5.053,0.019,10.107-0.021,15.16c-0.031,4.41-1.884,6.099-6.734,6.104c-12.953,0.026-25.905,0.026-38.861,0
	c-4.662-0.009-6.615-1.732-6.634-5.905c-0.04-9.906-0.04-19.815,0-29.724c0.016-4.176,1.987-5.961,6.571-5.972
	c12.956-0.029,25.908-0.024,38.861-0.004c4.891,0.009,6.741,1.675,6.801,6.063c0.04,3.035,0.007,6.071,0.007,9.736
	c1.979-1.673,3.092-3.174,4.095-4.757c3.219-5.078,5.336-10.608,7.956-15.933c0.323-0.66,0.601-1.332,0.255-1.996
	c-3.373-6.518-5.697-13.517-10.66-19.308c-0.323-0.38-0.62-0.784-1.646-0.964c0,3.691,0.014,7.384-0.004,11.076
	c-0.022,4.984-1.745,6.555-7.228,6.559c-12.627,0.011-25.253,0.013-37.878,0c-5.312-0.005-7.128-1.611-7.138-6.353
	c-0.021-9.711-0.027-19.421,0.003-29.132c0.017-4.367,1.945-6.116,6.738-6.125c12.842-0.023,25.685-0.02,38.531-0.003
	c5.098,0.006,6.93,1.643,6.968,6.209c0.033,4.26-0.009,8.521,0.021,12.782c0.006,0.847-0.292,1.758,0.617,2.485
	c5.798,4.625,8.105,11.131,11.14,17.241C243.455,55.188,244.006,56.344,244.841,58.052z"/>
<path fill-rule="evenodd" fill="#5339A2" d="M117.547,186.611c-18.955,0-34.511,0.01-50.065-0.008
	c-2.935-0.004-5.869-0.1-8.712-0.897c-1.913-0.534-3.428-1.367-3.115-3.521c0.323-2.232,2.242-1.691,3.789-1.779
	c2.591-0.145,5.964,0.996,7.576-0.432c1.773-1.573,0.563-4.702,0.574-7.143c0.067-12.772,0.022-25.546,0.037-38.318
	c0.005-4.824,1.493-6.254,6.74-6.257c25.779-0.023,51.557-0.026,77.336,0.003c5.176,0.006,6.801,1.561,6.807,6.298
	c0.019,14.359,0.057,28.714-0.046,43.071c-0.017,2.156,0.483,3.07,3.018,2.818c2.043-0.203,4.13-0.044,6.195-0.044
	c1.269,0,2.479,0.139,2.663,1.582c0.156,1.204,0.134,2.388-1.308,3.079c-1.664,0.795-3.424,1.216-5.302,1.286
	C147.208,186.974,130.675,186.376,117.547,186.611z"/>
<path fill-rule="evenodd" fill="#5F48A9" d="M85.677,1.696c17.276-0.001,34.551-0.001,51.828-0.003
	c0.078,0.588,0.226,1.175,0.228,1.763c0.013,20.402-0.019,40.804,0.058,61.206c0.006,2.051-0.832,2.454-2.866,2.445
	c-15.557-0.062-31.115-0.045-46.673-0.016c-1.694,0.003-2.871-0.041-2.864-2.131c0.071-20.699,0.046-41.398,0.062-62.099
	C85.449,2.473,85.598,2.085,85.677,1.696z"/>
<path fill-rule="evenodd" fill="#4E349F" d="M62.598,50.019c0,7.823-0.065,15.647,0.045,23.47c0.027,1.938-0.581,2.534-2.741,2.518
	c-12.184-0.087-24.369-0.078-36.552-0.005c-1.989,0.012-2.604-0.507-2.596-2.344c0.072-15.845,0.075-31.69-0.002-47.535
	c-0.009-1.936,0.583-2.538,2.745-2.523c12.184,0.086,24.369,0.079,36.552,0.005c1.997-0.012,2.612,0.521,2.591,2.351
	C62.542,33.975,62.598,41.997,62.598,50.019z"/>
<path fill-rule="evenodd" fill="#563EA4" d="M285.187,182.035c-7.722,0-15.44,0.018-23.159-0.007
	c-4.225-0.011-4.792-0.525-4.796-4.228c-0.011-8.91-0.011-17.817,0.002-26.728c0.002-3.297,0.928-4.182,4.624-4.188
	c15.656-0.026,31.315-0.026,46.969,0.003c3.492,0.009,4.532,0.967,4.542,4.031c0.028,9.006,0.031,18.015,0,27.017
	c-0.01,3.402-0.785,4.072-4.7,4.087C300.84,182.055,293.014,182.032,285.187,182.035z"/>
<path fill-rule="evenodd" fill="#533AA2" d="M232.431,144.517c0,6.929-0.083,13.854,0.051,20.775
	c0.038,2.089-0.367,2.937-2.975,2.905c-10.756-0.146-21.518-0.114-32.275-0.021c-2.131,0.018-2.76-0.54-2.748-2.493
	c0.085-14.244,0.073-28.492,0.014-42.735c-0.007-1.694,0.332-2.456,2.466-2.438c10.978,0.09,21.954,0.085,32.931,0
	c1.999-0.011,2.606,0.506,2.582,2.343C232.366,130.072,232.431,137.294,232.431,144.517z"/>
<path fill-rule="evenodd" fill="#4F35A0" d="M61.376,108.782c0.09,0.383,0.123,0.784,0.278,1.141
	c1.319,3.047,0.536,4.092-3.135,4.096c-9.361,0.009-18.72,0.002-28.081,0.002c-8.055,0-16.109,0.012-24.163-0.006
	c-3.193-0.005-3.838-0.943-3.002-3.818c0.575-1.979-0.111-4.026,0.07-6.092c0.249-2.856-0.583-5.837,0.256-8.762
	c0.027-0.095,0.083-0.207,0.052-0.288c-0.546-1.454-1.708-3.079,0.018-4.319c1.627-1.17,3.771-0.468,5.671-0.475
	c16.216-0.049,32.433-0.038,48.65-0.003c1.133,0.002,2.393-0.451,3.414,0.428c0.203,0.686-0.277,0.996-0.833,1.264
	c-1.577,0.522-3.224,0.369-4.848,0.369c-15.123,0.015-30.245,0.003-45.368,0.012c-4.416,0.003-4.505,0.017-4.536,4.119
	c-0.032,4.252-0.021,8.506,0.013,12.761c0.015,1.852,0.612,2.722,2.769,2.722c15.993-0.014,31.986-0.003,47.978-0.011
	c1.949,0,3.146-0.546,2.997-2.545c-0.038-0.508,0.334-0.927,0.769-1.257C61.06,107.862,61.503,107.955,61.376,108.782z"/>
<path fill-rule="evenodd" fill="#5941A6" d="M134.564,101.054c-5.763,0-11.528-0.07-17.288,0.028
	c-3.108,0.056-4.341-1.262-4.315-3.94c0.035-3.761-0.028-7.522,0.02-11.284c0.04-3.232,0.955-4.117,4.413-4.127
	c11.527-0.035,23.054-0.035,34.581-0.002c3.719,0.009,4.582,0.835,4.622,4.242c0.043,3.564,0.033,7.128,0.003,10.692
	c-0.03,3.644-0.819,4.375-4.744,4.388C146.092,101.071,140.329,101.057,134.564,101.054z"/>
<path fill-rule="evenodd" fill="#5941A5" d="M6.297,170.48c-0.002-5.243-0.031-10.488,0.009-15.729
	c0.026-3.338,0.768-4.017,4.409-4.05c4.347-0.04,8.694,0.004,13.042-0.007c2.539-0.004,3.818,1.105,3.817,3.438
	c-0.004,10.881,0.001,21.764,0,32.646c0,2.502-1.462,3.512-4.123,3.48c-4.347-0.059-8.695-0.067-13.041,0
	c-2.884,0.04-4.164-1.121-4.131-3.753C6.345,181.164,6.298,175.824,6.297,170.48z"/>
<path fill-rule="evenodd" fill="#543BA3" d="M73.794,94.682c0.001-3.359,0.042-6.72-0.013-10.081
	c-0.034-2.005,0.931-2.877,3.143-2.815c2.602,0.073,5.228,0.193,7.811-0.029c3.298-0.283,5.562,0.897,8.052,2.835
	c3.668,2.856,5.073,6.011,4.621,10.306c-0.361,3.428-0.115,6.914-0.06,10.37c0.03,1.863-0.852,2.731-2.905,2.726
	c-5.863-0.023-11.725-0.023-17.586,0.003c-2.227,0.012-3.104-0.987-3.077-2.938C73.827,101.599,73.793,98.14,73.794,94.682z"/>
<path fill-rule="evenodd" fill="#563DA4" d="M42.845,137.381c0-4.544,0.052-9.087-0.024-13.626c-0.036-2.131,0.94-3.076,3.277-3.062
	c2.261,0.018,3.412,0.862,3.403,3.015c-0.04,9.184-0.017,18.369-0.05,27.549c-0.006,2.183-1.658,3.796-2.596,5.647
	c-0.463,0.914-1.239,0.624-1.657-0.168c-1.062-2.018-2.498-3.837-2.38-6.322c0.205-4.339,0.058-8.688,0.058-13.033
	C42.865,137.381,42.854,137.381,42.845,137.381z"/>
<path fill-rule="evenodd" fill="#5A42A6" d="M277.388,114.012c2.931,0,5.863-0.052,8.793,0.021c2.521,0.062,4.169,1.298,4.303,3.61
	c0.131,2.197-1.502,3.114-3.666,3.883c-5.704,2.035-11.607,1.588-17.48,1.592c-3.926,0-6.292-1.829-6.214-4.621
	c0.074-2.685,2.426-4.411,6.122-4.495c0.11-0.004,0.219,0,0.328,0c2.604,0,5.209,0,7.814,0
	C277.388,114.004,277.388,114.01,277.388,114.012z"/>
<path fill-rule="evenodd" fill="#6C56AF" d="M60.526,91.482c0.293-0.264,0.587-0.531,0.879-0.796
	c0.955,0.942,0.941,1.868,0.704,3.188c-0.412,2.308,0.168,4.753-0.138,7.09c-0.341,2.606,1.09,5.316-0.595,7.818
	c-0.241-0.235-0.483-0.474-0.724-0.708c-2.365-2.281-1.222-5.143-1.188-7.669C59.503,97.449,58.268,94.25,60.526,91.482z"/>
<path fill-rule="evenodd" fill="#FEFEFE" d="M253.329,48.142c0-2.961,0.054-5.601-0.024-8.239c-0.039-1.299,0.712-1.408,1.832-1.406
	c15.342,0.016,30.686,0.027,46.03-0.015c1.473-0.003,1.821,0.491,1.818,1.733c-0.036,16.742-0.013,33.482-0.053,50.224
	c-0.006,2.652-1.673,3.956-4.57,3.957c-13.491,0-26.989,0-40.483-0.002c-2.721-0.002-4.447-1.219-4.494-3.717
	c-0.109-6.115-0.034-12.233-0.034-18.562c2.579,0.956,5.097,0.949,6.894,3.239c1.487,1.892,4.105,1.558,6.062-0.112
	c1.821-1.557,1.757-4.359-0.159-5.839c-2.041-1.576-4.49-1.722-6.096,0.166c-1.499,1.77-2.717,1.983-4.855,1.237
	c-2.309-0.806-1.86-2.392-1.866-3.916c-0.019-4.656,0.1-9.314-0.057-13.966c-0.065-1.98,0.652-3.04,2.647-3.849
	c1.929-0.781,2.811-0.204,4.022,1.124c1.71,1.869,4.551,1.754,6.369,0.09c1.701-1.552,1.732-4.016,0.072-5.644
	c-1.749-1.715-4.984-2.017-6.305-0.056C258.463,46.989,255.896,46.987,253.329,48.142z"/>
<path fill-rule="evenodd" fill="#FEFEFE" d="M222.799,89.14c1.425-2.523,4.234-2.603,6.987-3.38c0,5.924,0.056,11.646-0.026,17.37
	c-0.032,2.339-1.534,3.718-4.117,3.727c-13.706,0.043-27.409,0.031-41.11,0.012c-2.579-0.003-4.252-1.248-4.287-3.582
	c-0.117-8.216-0.029-16.434-0.095-24.649c-0.017-2.094,1.597-1.458,2.714-1.46c12.401-0.033,24.798-0.022,37.195-0.022
	c1.632,0,3.266,0,4.897,0c5.039,0,5.77,0.886,4.871,5.461c-0.31,1.569-1.736,1.601-2.813,2.105
	c-2.124,0.999-3.043-0.662-4.215-1.715c-2.319-0.51-4.537-0.635-6.015,1.533c-0.676,0.996-0.68,2.074,0,3.069
	C218.26,89.772,220.478,89.654,222.799,89.14z"/>
<path fill-rule="evenodd" fill="#FEFEFE" d="M222.799,38.005c1.226-1.192,2.201-2.461,4.553-1.645
	c2.393,0.831,2.549,2.251,2.489,4.153c-0.11,3.562,0.012,7.128-0.048,10.691c-0.053,3.294-1.36,4.524-4.914,4.532
	c-13.27,0.031-26.536,0.032-39.805-0.001c-3.418-0.009-4.851-1.232-4.878-4.275c-0.075-7.821,0.016-15.643-0.063-23.462
	c-0.016-1.549,0.461-2.017,2.186-2.01c15.12,0.058,30.237,0.059,45.354-0.001c1.753-0.006,2.247,0.496,2.168,2.026
	c-0.126,2.35-0.032,4.708-0.032,7.227c-2.762-0.782-5.603-0.818-7.009-3.369c-2.319-0.51-4.537-0.635-6.015,1.533
	c-0.676,0.996-0.68,2.074,0,3.069C218.26,38.639,220.478,38.52,222.799,38.005z"/>
<path fill-rule="evenodd" fill="#FEFEFE" d="M278.102,37.316c-6.959,0-13.917,0.08-20.873-0.069
	c-1.381-0.029-3.901,1.411-3.949-1.789c-0.066-4.371,0.785-6.044,3.885-6.421c0.751-0.091,1.52-0.043,2.278-0.043
	c12.503-0.002,25.007-0.007,37.506,0.001c5.121,0.003,7.47,2.979,6.018,7.438c-0.443,1.362-1.534,0.853-2.363,0.857
	C293.103,37.334,285.603,37.316,278.102,37.316z"/>
<path fill-rule="evenodd" fill="#FEFEFE" d="M204.803,24.83c-7.39,0-14.781-0.072-22.174,0.047c-2.06,0.033-2.523-0.539-2.511-2.332
	c0.036-5.07,0.993-6.038,6.638-6.039c12.394-0.002,24.785-0.007,37.179,0.003c4.964,0.004,7.541,3.393,5.849,7.563
	c-0.529,1.306-1.653,0.719-2.476,0.724C219.808,24.854,212.306,24.83,204.803,24.83z"/>
<path fill-rule="evenodd" fill="#FEFEFE" d="M204.646,75.964c-6.847,0-13.7,0.084-20.544-0.07c-1.378-0.031-3.905,1.423-3.974-1.765
	c-0.095-4.36,0.771-6.056,3.858-6.441c0.749-0.094,1.518-0.045,2.28-0.045c12.5-0.002,25-0.007,37.502,0.001
	c5.149,0.003,7.454,2.903,6.047,7.415c-0.431,1.375-1.515,0.876-2.344,0.881C219.863,75.981,212.253,75.964,204.646,75.964z"/>
<path fill-rule="evenodd" fill="#FDFCFD" d="M251.861,51.922c0,5.667,0,10.808,0,16.008
	C245.077,63.276,244.981,59.07,251.861,51.922z"/>
<path fill-rule="evenodd" fill="#634CAB" d="M222.799,89.14c-2.281,1.864-4.45,1.344-6.266-0.497
	c-1.579-1.601-1.563-3.54,0.003-5.14c1.81-1.848,3.984-2.353,6.264-0.498c-0.271,0.207-0.542,0.413-0.814,0.619
	c-1.561,0.54-4.048,0.087-4.152,2.309c-0.122,2.477,2.514,2.04,4.153,2.595C222.256,88.731,222.527,88.937,222.799,89.14z"/>
<path fill-rule="evenodd" fill="#634CAB" d="M222.799,38.005c-2.281,1.862-4.45,1.344-6.266-0.496
	c-1.579-1.602-1.563-3.542,0.003-5.141c1.81-1.848,3.984-2.354,6.264-0.499c-0.271,0.206-0.542,0.412-0.814,0.619
	c-1.561,0.539-4.048,0.087-4.152,2.31c-0.122,2.477,2.514,2.04,4.153,2.594C222.256,37.596,222.527,37.799,222.799,38.005z"/>
<path fill-rule="evenodd" fill="#F1EFF7" d="M266.384,47.107c-0.169,2.017-1.194,3.186-3.205,3.242
	c-1.854,0.05-3.08-0.979-3.234-2.65c-0.165-1.833,1.007-3.034,2.969-3.194C264.963,44.338,265.963,45.59,266.384,47.107z"/>
<path fill-rule="evenodd" fill="#F1EFF7" d="M263.027,69.369c2.142,0.365,3.396,1.345,3.271,3.195
	c-0.123,1.832-1.439,2.887-3.432,2.751c-1.811-0.124-2.967-1.213-2.935-2.928C259.966,70.52,261.34,69.694,263.027,69.369z"/>
<path fill-rule="evenodd" fill="#F2F0F7" d="M221.986,88.526c-1.728,0.695-3.318,0.712-4.543-0.826
	c-0.852-1.067-0.834-2.178,0.007-3.245c1.218-1.542,2.803-1.543,4.535-0.833C223.642,85.257,223.674,86.891,221.986,88.526z"/>
<path fill-rule="evenodd" fill="#F2F0F7" d="M221.986,37.392c-1.728,0.697-3.318,0.713-4.543-0.826
	c-0.852-1.068-0.834-2.178,0.007-3.243c1.218-1.544,2.803-1.545,4.535-0.834C223.642,34.123,223.674,35.757,221.986,37.392z"/>
<path fill-rule="evenodd" fill="#FDFDFE" d="M112.872,180.325c-13.596,0-27.191-0.044-40.785,0.044
	c-2.179,0.011-2.976-0.384-2.96-2.563c0.111-14.548,0.047-29.104,0.066-43.657c0.004-3.439,1.059-4.392,4.854-4.395
	c25.885-0.012,51.769-0.012,77.655-0.003c4.095,0.003,4.977,0.81,4.981,4.533c0.016,14.453-0.057,28.909,0.07,43.365
	c0.022,2.295-0.737,2.743-3.098,2.726C140.06,180.271,126.466,180.325,112.872,180.325z"/>
<path fill-rule="evenodd" fill="#FEFEFE" d="M167.02,184.447c-2.436,0.576-4.911,0.675-7.42,0.675
	c-30.758-0.022-61.516-0.02-92.275-0.002c-2.833,0-5.643-0.07-8.394-0.758c-0.065-1.001,0.807-1.047,1.523-1.181
	c1.071-0.203,2.168-0.131,3.255-0.131c32.859-0.006,65.72-0.023,98.577,0.043C163.899,183.1,166.072,182.212,167.02,184.447z"/>
<path fill-rule="evenodd" fill="#8471BC" d="M167.02,184.447c-0.696-0.97-1.777-0.538-2.675-0.538
	c-34.212-0.026-68.427-0.022-102.641-0.009c-0.936,0-1.976-0.313-2.773,0.462c-0.843,0.011-1.253-0.449-1.479-1.117
	c1.156-0.79,2.507-0.531,3.786-0.531c34.464-0.018,68.928-0.018,103.394-0.003c1.279,0,2.632-0.24,3.771,0.578
	C168.136,183.863,167.831,184.403,167.02,184.447z"/>
<path fill-rule="evenodd" fill="#A699CF" d="M168.403,183.289c-36.983-0.015-73.969-0.03-110.951-0.044
	c-0.075-0.192-0.085-0.389-0.033-0.586c0.925-0.43,1.92-0.241,2.883-0.241c35.06-0.009,70.118-0.009,105.177,0
	c0.962,0,1.959-0.188,2.885,0.241C168.375,182.867,168.391,183.079,168.403,183.289z"/>
<path fill-rule="evenodd" fill="#FEFEFE" d="M168.363,182.659c-36.981,0-73.964,0-110.944,0c0.959-1.243,2.377-0.606,3.548-0.606
	c31.241-0.016,62.483,0.025,93.724,0.046c3.702,0,7.402-0.093,11.099-0.05C166.649,182.058,167.786,181.507,168.363,182.659z"/>
<path fill-rule="evenodd" fill="#FEFEFE" d="M87.403,39.715c-0.067-11.577-0.118-23.154-0.227-34.731
	c-0.015-1.529,0.812-1.778,2.22-1.776c14.793,0.023,29.585,0.023,44.377,0c1.409-0.002,2.235,0.248,2.222,1.776
	c-0.109,11.578-0.16,23.155-0.229,34.731c-1.176,0.939-2.625,0.81-4.023,0.811c-13.438,0.015-26.877,0.015-40.315,0
	C90.03,40.524,88.581,40.654,87.403,39.715z"/>
<path fill-rule="evenodd" fill="#FEFEFE" d="M135.766,40.861c0.07,7.615,0.111,15.23,0.229,22.844
	c0.022,1.535-0.823,1.774-2.225,1.771c-14.791-0.023-29.58-0.023-44.369,0c-1.403,0.002-2.25-0.236-2.226-1.771
	c0.116-7.614,0.16-15.229,0.227-22.844c1.044-0.738,2.278-0.563,3.458-0.563c13.816-0.012,27.632-0.012,41.449,0
	C133.489,40.298,134.724,40.124,135.766,40.861z"/>
<path fill-rule="evenodd" fill="#9080C3" d="M135.766,40.861c-16.12,0-32.241,0-48.363,0c0-0.382,0-0.764,0-1.146
	c16.122,0,32.244,0,48.363,0C135.766,40.098,135.766,40.479,135.766,40.861z"/>
<path fill-rule="evenodd" fill="#FEFEFE" d="M61.292,49.93c0,7.531-0.071,15.063,0.05,22.593c0.03,1.867-0.567,2.35-2.559,2.294
	c-4.676-0.131-9.362-0.104-14.04-0.009c-1.761,0.036-2.443-0.329-2.435-2.093c0.074-15.26,0.072-30.521,0.001-45.782
	c-0.008-1.712,0.55-2.183,2.386-2.14c4.679,0.11,9.367,0.162,14.04-0.016c2.32-0.089,2.617,0.764,2.596,2.559
	C61.238,34.867,61.292,42.398,61.292,49.93z"/>
<path fill-rule="evenodd" fill="#FEFEFE" d="M22.102,49.506c0-7.432,0.081-14.865-0.054-22.296c-0.038-2.01,0.676-2.479,2.749-2.42
	c4.677,0.13,9.362,0.097,14.041,0.01c1.657-0.031,2.251,0.346,2.244,1.963c-0.064,15.359-0.064,30.719,0,46.079
	c0.007,1.616-0.584,1.995-2.242,1.964c-4.68-0.088-9.369-0.168-14.04,0.026c-2.483,0.103-2.771-0.813-2.743-2.732
	C22.167,64.57,22.102,57.037,22.102,49.506z"/>
<path fill-rule="evenodd" fill="#FDFDFE" d="M285.235,180.612c-7.826,0-15.659-0.063-23.485,0.037
	c-2.246,0.033-3.125-0.635-3.111-2.69c0.056-8.903,0.053-17.813,0-26.72c-0.01-2.003,0.771-2.771,3.066-2.763
	c15.659,0.072,31.313,0.078,46.973-0.006c2.319-0.012,2.995,0.693,2.979,2.723c-0.085,8.908-0.114,17.818,0.014,26.726
	c0.032,2.334-0.978,2.77-3.275,2.737C300.676,180.542,292.954,180.612,285.235,180.612z"/>
<path fill-rule="evenodd" fill="#FEFEFE" d="M195.783,144.184c0-6.736,0.073-13.472-0.052-20.208
	c-0.033-1.866,0.602-2.316,2.58-2.299c10.118,0.087,20.24,0.09,30.36-0.003c2.02-0.02,2.562,0.493,2.548,2.321
	c-0.081,13.571-0.085,27.146,0.003,40.717c0.013,1.865-0.591,2.315-2.573,2.295c-10.118-0.087-20.242-0.09-30.358,0.003
	c-2.021,0.021-2.586-0.487-2.556-2.322C195.854,157.854,195.783,151.019,195.783,144.184z"/>
<path fill-rule="evenodd" fill="#FEFEFE" d="M60.526,91.482c-0.683,2.591-0.218,5.274-0.241,7.851
	c-0.023,2.867-0.383,5.859,0.368,8.741c-0.67,0.664-0.76,1.358-0.267,2.165c1.48,2.42-0.116,2.606-2.219,2.604
	c-16.971-0.026-33.942-0.026-50.912,0c-2.211,0.003-3.668-0.044-2.451-2.78c0.745-1.675,0.254-3.909,0.02-5.561
	c-0.549-3.86,0.836-7.729-0.452-11.507c-0.328-0.965,0.241-1.498,1.328-1.556c0.435-0.021,0.871-0.013,1.307-0.011
	C24.845,91.444,42.686,91.462,60.526,91.482z"/>
<path fill-rule="evenodd" fill="#FCFCFD" d="M134.623,99.82c-5.552,0-11.107-0.126-16.652,0.053
	c-2.95,0.095-3.814-0.945-3.688-3.472c0.173-3.462,0.105-6.935,0.021-10.403c-0.05-2.07,0.686-3.083,3.176-3.068
	c11.537,0.069,23.075,0.056,34.611,0.009c2.169-0.009,3.228,0.652,3.184,2.744c-0.083,3.764-0.095,7.531,0.005,11.295
	c0.059,2.228-1.009,2.918-3.35,2.874C146.163,99.754,140.392,99.82,134.623,99.82z"/>
<path fill-rule="evenodd" fill="#FDFDFE" d="M7.655,170.205c0-5.151,0.062-10.303-0.031-15.451
	c-0.036-1.993,0.658-2.905,2.987-2.847c4.242,0.104,8.489,0.081,12.732,0.009c2.12-0.039,2.895,0.797,2.888,2.666
	c-0.04,10.599-0.038,21.201,0,31.801c0.007,1.848-0.691,2.704-2.86,2.651c-4.237-0.099-8.48-0.107-12.716,0.004
	c-2.285,0.063-3.072-0.74-3.033-2.784C7.721,180.905,7.655,175.557,7.655,170.205z"/>
<path fill-rule="evenodd" fill="#FEFEFE" d="M75.128,94.863c0-3.27,0.063-6.539-0.027-9.804c-0.043-1.551,0.576-2.113,2.27-2.064
	c2.935,0.083,5.881,0.14,8.809-0.019c2.126-0.113,2.517,0.684,2.503,2.417c-0.029,4.074,0.067,4.195,4.673,4.112
	c2.195-0.039,2.755,0.621,2.688,2.519c-0.143,4.058-0.125,8.124-0.007,12.18c0.055,1.847-0.412,2.677-2.685,2.615
	c-5.217-0.14-10.445-0.116-15.666-0.012c-2.043,0.038-2.653-0.67-2.59-2.44C75.208,101.205,75.128,98.032,75.128,94.863z"/>
<path fill-rule="evenodd" fill="#F5F4F9" d="M44.205,137.984c0-3.758,0.033-7.514-0.018-11.269c-0.018-1.339,0.09-2.262,2.031-2.204
	c1.688,0.053,1.927,0.775,1.922,2.044c-0.034,7.711-0.049,15.419,0.012,23.131c0.012,1.441-0.547,1.834-2.076,1.863
	c-1.739,0.031-1.907-0.743-1.891-2C44.238,145.692,44.205,141.835,44.205,137.984z"/>
<path fill-rule="evenodd" fill="#E5E2F1" d="M45.912,155.349c-0.232-0.769-1.512-1.292-0.465-2.156
	c0.261-0.215,1.28-0.145,1.43,0.085C47.481,154.188,46.808,154.788,45.912,155.349z"/>
<path fill-rule="evenodd" fill="#FAFAFC" d="M282.758,115.271c1.303-0.026,2.607-0.143,3.899-0.053
	c1.466,0.105,2.415,0.915,2.542,2.276c0.129,1.37-0.669,2.43-2.111,2.595c-4.969,0.571-9.968,0.334-14.954,0.122
	c-1.054-0.044-1.845-0.771-1.729-1.814c0.113-1.033,0.976-1.498,2.072-1.513c2.608-0.028,5.22,0.039,7.823-0.072
	c0.876-0.035,2.361,0.705,2.437-1.036c-0.246-0.122-0.324-0.238-0.237-0.346C282.586,115.327,282.67,115.271,282.758,115.271z"/>
<path fill-rule="evenodd" fill="#FBFAFC" d="M271.551,115.702c-3.289,1.856-3.406,3.116-0.318,6.11c-1.055,0-1.877,0.007-2.7,0
	c-2.467-0.022-3.983-1.244-3.989-3.392c-0.007-2.04,1.57-3.141,3.817-3.244c1.076-0.05,2.154,0.034,3.231,0.055
	c0.232,0.122,0.305,0.232,0.215,0.333C271.726,115.654,271.638,115.702,271.551,115.702z"/>
<path fill-rule="evenodd" fill="#BCB2DA" d="M271.551,115.702c0.016-0.155,0.031-0.312,0.041-0.471
	c3.723,0.014,7.444,0.026,11.166,0.04c0.02,0.172,0.013,0.337-0.021,0.505C279.007,115.753,275.278,115.727,271.551,115.702z"/>
<path fill-rule="evenodd" fill="#614AAA" d="M267.658,60.531c-0.004,2.225-2.12,4.14-4.562,4.126
	c-2.442-0.014-4.531-1.945-4.513-4.171c0.019-2.246,2.112-4.145,4.558-4.134C265.564,56.364,267.658,58.302,267.658,60.531z"/>
<path fill-rule="evenodd" fill="#614AAA" d="M267.658,85.514c-0.011,2.226-2.132,4.137-4.574,4.117
	c-2.442-0.021-4.525-1.954-4.5-4.183c0.025-2.246,2.125-4.14,4.568-4.122C265.577,81.343,267.667,83.287,267.658,85.514z"/>
<path fill-rule="evenodd" fill="#614AAA" d="M194.503,86.232c-0.084,2.225-2.278,4.083-4.707,3.994
	c-2.445-0.093-4.466-2.087-4.366-4.307c0.099-2.238,2.276-4.087,4.706-3.999C192.556,82.009,194.586,84.013,194.503,86.232z"/>
<path fill-rule="evenodd" fill="#614AAA" d="M194.503,99.179c-0.003,2.225-2.118,4.139-4.56,4.127
	c-2.443-0.015-4.536-1.947-4.514-4.171c0.017-2.249,2.11-4.146,4.556-4.134C192.409,95.013,194.505,96.95,194.503,99.179z"/>
<path fill-rule="evenodd" fill="#614AAA" d="M190.119,30.786c2.424,0.081,4.457,2.077,4.384,4.298
	c-0.078,2.225-2.261,4.089-4.694,4.006c-2.442-0.084-4.474-2.071-4.379-4.292C185.522,32.558,187.689,30.705,190.119,30.786z"/>
<path fill-rule="evenodd" fill="#614AAA" d="M185.43,47.958c0.046-2.25,2.158-4.127,4.604-4.091c2.426,0.036,4.497,1.993,4.47,4.221
	c-0.028,2.228-2.166,4.124-4.606,4.084C187.447,52.132,185.382,50.186,185.43,47.958z"/>
<path fill-rule="evenodd" fill="#624BAA" d="M263.109,49.177c-1.104-0.137-1.835-0.68-1.844-1.696
	c-0.01-1.159,0.763-1.857,2.033-1.766c1.088,0.08,1.742,0.774,1.682,1.801C264.918,48.537,264.207,49.063,263.109,49.177z"/>
<path fill-rule="evenodd" fill="#624BAA" d="M265.007,72.231c-0.004,1.045-0.568,1.738-1.652,1.878
	c-1.111,0.143-1.899-0.444-2.063-1.428c-0.193-1.146,0.488-1.91,1.754-1.999C264.178,70.604,264.779,71.282,265.007,72.231z"/>
<path fill-rule="evenodd" fill="#624BAA" d="M221.904,86.018c-0.078,1.013-0.643,1.691-1.754,1.773
	c-1.129,0.087-1.883-0.534-1.991-1.518c-0.124-1.148,0.592-1.896,1.872-1.915C221.156,84.34,221.741,85.026,221.904,86.018z"/>
<path fill-rule="evenodd" fill="#624BAA" d="M221.907,35.01c-0.169,0.999-0.764,1.65-1.891,1.648
	c-1.119-0.002-1.835-0.634-1.86-1.643c-0.029-1.16,0.738-1.862,2.012-1.788C221.271,33.29,221.842,33.995,221.907,35.01z"/>
<path fill-rule="evenodd" fill="#644DAB" d="M153.361,178.419c-2.498,0.055-4.994,0.153-7.492,0.153
	c-23.183,0.015-46.365,0.012-69.547,0c-1.298,0-2.597-0.116-3.896-0.174c-0.042-0.436,0.152-0.743,0.581-0.938
	c1.553-0.625,3.206-0.468,4.828-0.468c23.391-0.015,46.781-0.015,70.172,0c1.622,0,3.273-0.159,4.825,0.474
	C153.263,177.67,153.438,177.985,153.361,178.419z"/>
<path fill-rule="evenodd" fill="#644DAB" d="M72.422,134.652c2.497-0.055,4.994-0.153,7.491-0.153
	c23.292-0.012,46.582-0.012,69.875,0c1.192,0,2.381,0.099,3.574,0.153c0.08,0.433-0.099,0.749-0.532,0.947
	c-1.543,0.635-3.191,0.481-4.808,0.481c-23.42,0.014-46.841,0.012-70.26,0c-1.616,0-3.263,0.156-4.81-0.477
	C72.521,135.404,72.346,135.085,72.422,134.652z"/>
<path fill-rule="evenodd" fill="#7A67B8" d="M72.422,134.652c0.014,0.16,0.006,0.323-0.025,0.481
	c1.12,1.139,1.047,2.555,1.049,3.934c0.024,11.655,0.022,23.313,0.002,34.971c-0.003,1.383,0.042,2.787-1.061,3.934
	c0.042,0.139,0.055,0.281,0.039,0.427c-1.193-0.517-0.797-1.523-0.798-2.345c-0.023-13.025-0.025-26.051,0.003-39.076
	C71.633,136.167,71.184,135.149,72.422,134.652z"/>
<path fill-rule="evenodd" fill="#7A67B7" d="M153.387,135.134c-0.031-0.158-0.04-0.321-0.026-0.481
	c1.239,0.497,0.788,1.519,0.791,2.328c0.028,13.037,0.028,26.074,0,39.11c-0.003,0.813,0.448,1.831-0.791,2.328
	c-0.014-0.16-0.005-0.32,0.026-0.482c-1.12-1.134-1.046-2.551-1.049-3.927c-0.025-11.649-0.025-23.3,0-34.948
	C152.341,137.686,152.268,136.272,153.387,135.134z"/>
<path fill-rule="evenodd" fill="#7A67B7" d="M131.743,24.252c-0.086,3.74-3.389,7.305-7.154,7.818
	c-1.615,0.22-2.566-0.114-2.418-1.784c0.017-0.196,0.004-0.395-0.003-0.592c-0.153-4.839-0.155-4.954-5.495-4.936
	c-2.554,0.009-3.018-0.917-2.411-2.874c1.124-3.615,5.506-6.267,9.524-5.746C128.342,16.729,131.835,20.291,131.743,24.252z"/>
<path fill-rule="evenodd" fill="#5239A2" d="M115.464,26.535c1.571,0.436,3.861-0.672,4.308,0.704
	c0.651,1.999,0.277,4.296,0.182,6.461c-0.037,0.826-0.964,0.622-1.547,0.504c-2.078-0.419-3.851-1.366-5.134-2.916
	c-0.986-1.189-2.091-2.678-1.452-4.052C112.44,25.904,114.35,27.044,115.464,26.535z"/>
<path fill-rule="evenodd" fill="#4E349F" d="M105.034,11.245c-3.81,0-7.62,0.012-11.429-0.013c-0.578-0.004-1.49,0.197-1.464-0.691
	c0.024-0.858,0.925-0.656,1.504-0.657c7.619-0.019,15.238-0.019,22.857,0.001c0.577,0.001,1.489-0.196,1.464,0.691
	c-0.024,0.859-0.923,0.653-1.503,0.657C112.652,11.258,108.843,11.246,105.034,11.245z"/>
<path fill-rule="evenodd" fill="#907FC3" d="M111.341,16.842c-6.367,0-12.735,0-19.1,0c-0.002-0.198-0.003-0.396-0.003-0.594
	c6.366,0,12.733,0,19.099,0C111.337,16.446,111.339,16.645,111.341,16.842z"/>
<path fill-rule="evenodd" fill="#9080C3" d="M92.215,25.107c5.282,0,10.563,0,15.846,0c0.012,0.161,0.024,0.323,0.036,0.484
	c-5.287,0-10.574,0-15.86,0C92.23,25.43,92.223,25.269,92.215,25.107z"/>
<path fill-rule="evenodd" fill="#9080C3" d="M92.246,19.124c5.273,0,10.548,0,15.823,0c0.002,0.198,0.005,0.396,0.008,0.595
	c-5.275,0-10.55,0-15.825,0C92.25,19.521,92.248,19.322,92.246,19.124z"/>
<path fill-rule="evenodd" fill="#9080C3" d="M108.072,31.704c-5.275,0-10.55,0-15.825,0c-0.01-0.173-0.018-0.347-0.028-0.521
	c5.278,0,10.558,0,15.835,0C108.061,31.356,108.066,31.53,108.072,31.704z"/>
<path fill-rule="evenodd" fill="#9080C3" d="M92.248,22.115c4.187,0,8.373,0,12.559,0c0,0.198,0.001,0.397,0.003,0.594
	c-4.186,0-8.373,0-12.559,0C92.25,22.512,92.249,22.313,92.248,22.115z"/>
<path fill-rule="evenodd" fill="#9080C3" d="M104.824,28.74c-4.192,0-8.384,0-12.576,0c-0.01-0.181-0.021-0.361-0.031-0.541
	c4.195,0,8.39,0,12.585,0C104.809,28.379,104.817,28.559,104.824,28.74z"/>
<path fill-rule="evenodd" fill="#907FC3" d="M91.851,61.149c1.431-0.975,2.656-0.623,3.79-0.627
	c10.548-0.031,21.098-0.083,31.646,0.031c2.474,0.027,3.424-0.461,3.308-2.907c-0.227-4.713-0.065-9.439-0.065-14.177
	c1.651,0.039,1.277,0.952,1.282,1.523c0.038,4.752-0.005,9.504,0.038,14.255c0.013,1.5-0.335,2.466-2.312,2.459
	c-12.18-0.049-24.358-0.043-36.537-0.072C92.734,61.632,92.471,61.418,91.851,61.149z"/>
<path fill-rule="evenodd" fill="#4E349F" d="M105.057,51.891c0-1.375,0.052-2.754-0.018-4.127c-0.055-1.111,0.346-1.562,1.642-1.561
	c1.283,0.001,1.677,0.428,1.655,1.549c-0.058,2.948-0.056,5.897,0,8.845c0.02,1.108-0.349,1.562-1.644,1.561
	c-1.283-0.001-1.705-0.426-1.654-1.551C105.108,55.037,105.057,53.463,105.057,51.891z"/>
<path fill-rule="evenodd" fill="#4E349F" d="M118.112,53.666c-0.001,1.079-0.043,2.159,0.01,3.236
	c0.055,1.125-0.667,1.235-1.639,1.235s-1.667-0.11-1.641-1.235c0.049-2.059,0.058-4.12-0.007-6.177
	c-0.036-1.117,0.366-1.548,1.648-1.548c1.283,0,1.723,0.43,1.645,1.548C118.06,51.702,118.115,52.685,118.112,53.666z"/>
<path fill-rule="evenodd" fill="#634CAB" d="M103.596,55.317c-0.422,1.051,0.851,2.818-1.688,2.848
	c-2.98,0.035-1.725-2.011-1.79-3.204c-0.058-1.037-0.957-2.775,1.552-2.819C104.687,52.088,103.068,54.203,103.596,55.317z"/>
<path fill-rule="evenodd" fill="#5C44A7" d="M113.286,56.527c0.128,1.067-0.234,1.671-1.579,1.64
	c-1.11-0.025-1.881-0.149-1.857-1.417c0.018-1.05,0.26-1.679,1.614-1.639C112.565,55.145,113.439,55.242,113.286,56.527z"/>
<path fill-rule="evenodd" fill="#4E349F" d="M98.489,56.691c0.238,1.379-0.652,1.411-1.731,1.456
	c-1.409,0.061-1.482-0.632-1.526-1.628c-0.059-1.285,0.696-1.352,1.791-1.389C98.421,55.083,98.66,55.731,98.489,56.691z"/>
<path fill-rule="evenodd" fill="#9080C3" d="M121.629,49.229c2.034-0.686,4.056-0.857,6.045-0.016
	C125.663,50.062,123.643,49.824,121.629,49.229z"/>
<path fill-rule="evenodd" fill="#9080C3" d="M127.662,58.138c-2.022,0.708-4.041,0.795-6.831,0.083
	C123.593,57.228,125.625,57.457,127.662,58.138z"/>
<path fill-rule="evenodd" fill="#9080C3" d="M128.21,55.169c-1.492,0.775-2.438,0.638-4.148-0.017
	C125.874,54.428,126.83,54.431,128.21,55.169z"/>
<path fill-rule="evenodd" fill="#9080C3" d="M128.216,52.002c-1.444,1.072-2.407,0.717-3.786,0.479
	C125.65,51.254,126.672,51.574,128.216,52.002z"/>
<path fill-rule="evenodd" fill="#4E349F" d="M57.372,66.482c0,4.726,0,4.726-5.34,4.726c-5.11,0-5.11,0-5.11-4.638
	c0-4.876,0-4.876,5.503-4.876C57.372,61.694,57.372,61.694,57.372,66.482z"/>
<path fill-rule="evenodd" fill="#4E349F" d="M52.086,30.929c0.622,2.232-0.903,2.151-2.692,2.283
	c-2.377,0.176-2.417-0.89-2.544-2.564c-0.163-2.167,0.982-2.216,2.825-2.312C52.003,28.214,52.492,29.119,52.086,30.929z"/>
<path fill-rule="evenodd" fill="#4E349F" d="M57.242,45.391c-3.398,0-6.797,0-10.196,0c-0.003-0.199-0.006-0.396-0.011-0.594
	c3.4,0,6.801,0,10.202,0C57.239,44.994,57.241,45.192,57.242,45.391z"/>
<path fill-rule="evenodd" fill="#4E349F" d="M47.387,38.06c3.214,0,6.431,0,9.646,0c0,0.1,0,0.198,0,0.297c-3.212,0-6.422,0-9.633,0
	C47.395,38.258,47.391,38.16,47.387,38.06z"/>
<path fill-rule="evenodd" fill="#4E349F" d="M47.318,35.668c3.211,0,6.42,0,9.628,0c0.003,0.099,0.004,0.198,0.005,0.298
	c-3.162,0-6.323,0-9.485,0C47.418,35.866,47.368,35.767,47.318,35.668z"/>
<path fill-rule="evenodd" fill="#4E349F" d="M57.033,55.002c-3.211,0-6.42,0-9.629,0c-0.002-0.084-0.004-0.167-0.006-0.252
	c3.21,0,6.42,0,9.632,0C57.029,54.835,57.031,54.918,57.033,55.002z"/>
<path fill-rule="evenodd" fill="#4E349F" d="M47.316,52.314c3.215,0,6.43,0,9.646,0c0.002,0.097,0.004,0.193,0.006,0.29
	c-3.164,0-6.329,0-9.494,0C47.421,52.507,47.368,52.411,47.316,52.314z"/>
<path fill-rule="evenodd" fill="#4E349F" d="M47.299,49.972c3.182,0,6.364,0,9.546,0c0.004,0.074,0.007,0.148,0.011,0.222
	c-3.183,0-6.366,0-9.548,0C47.305,50.121,47.301,50.046,47.299,49.972z"/>
<path fill-rule="evenodd" fill="#4E349F" d="M47.333,47.558c3.216,0,6.432,0,9.647,0c0.002,0.099,0.003,0.198,0.005,0.297
	c-3.177,0-6.354,0-9.531,0C47.413,47.755,47.373,47.657,47.333,47.558z"/>
<path fill-rule="evenodd" fill="#4E349F" d="M31.094,49.803c-5.074,0-5.074,0-5.074-4.672c0-4.842,0-4.842,5.213-4.842
	c5.237,0,5.237,0,5.237,4.819C36.471,49.803,36.471,49.803,31.094,49.803z"/>
<path fill-rule="evenodd" fill="#4E349F" d="M31.2,71.208c-0.755,0-1.519-0.074-2.26,0.015c-2.078,0.249-2.991-0.203-3.025-2.434
	c-0.036-2.395,1.196-2.475,3.116-2.356c1.501,0.093,3.026,0.122,4.521-0.007c2.067-0.176,3.076,0.182,3.015,2.448
	c-0.053,2.009-0.771,2.579-2.784,2.35C32.934,71.127,32.061,71.208,31.2,71.208z"/>
<path fill-rule="evenodd" fill="#4E349F" d="M36.093,38.335c-3.182,0-6.364,0-9.545,0c-0.003-0.074-0.007-0.147-0.011-0.221
	c3.183,0,6.364,0,9.547,0C36.086,38.188,36.089,38.262,36.093,38.335z"/>
<path fill-rule="evenodd" fill="#4E349F" d="M26.526,54.711c3.2,0,6.401,0,9.6,0c0,0.1,0,0.199,0,0.298c-3.216,0-6.432,0-9.648,0
	C26.495,54.911,26.51,54.811,26.526,54.711z"/>
<path fill-rule="evenodd" fill="#4E349F" d="M36.093,28.823c-3.182,0-6.364,0-9.545,0c-0.003-0.074-0.007-0.147-0.011-0.222
	c3.183,0,6.364,0,9.547,0C36.086,28.676,36.089,28.749,36.093,28.823z"/>
<path fill-rule="evenodd" fill="#4E349F" d="M26.431,35.666c3.216,0,6.432,0,9.648,0c0.002,0.099,0.002,0.197,0.003,0.298
	c-3.177,0-6.354,0-9.531,0C26.511,35.863,26.471,35.764,26.431,35.666z"/>
<path fill-rule="evenodd" fill="#4E349F" d="M36.126,59.76c-3.213,0-6.428,0-9.641,0c-0.001-0.086-0.003-0.171-0.004-0.257
	c3.213,0,6.428,0,9.642,0C36.124,59.588,36.125,59.674,36.126,59.76z"/>
<path fill-rule="evenodd" fill="#4E349F" d="M36.126,33.599c-3.213,0-6.428,0-9.641,0c-0.001-0.085-0.003-0.172-0.004-0.258
	c3.213,0,6.428,0,9.642,0C36.124,33.427,36.125,33.513,36.126,33.599z"/>
<path fill-rule="evenodd" fill="#4E349F" d="M36.074,57.397c-3.209,0-6.419,0-9.628,0c-0.001-0.099-0.003-0.198-0.005-0.297
	c3.163,0,6.324,0,9.485,0C35.976,57.199,36.024,57.298,36.074,57.397z"/>
<path fill-rule="evenodd" fill="#4E349F" d="M36.131,52.625c-3.209,0-6.418,0-9.629,0c-0.002-0.084-0.004-0.168-0.006-0.253
	c3.211,0,6.42,0,9.631,0C36.127,52.457,36.129,52.54,36.131,52.625z"/>
<path fill-rule="evenodd" fill="#4E349F" d="M26.46,30.916c3.215,0,6.432,0,9.647,0c0.001,0.099,0.002,0.197,0.003,0.297
	c-3.196,0-6.39,0-9.584,0C26.503,31.113,26.481,31.015,26.46,30.916z"/>
<path fill-rule="evenodd" fill="#ADA1D3" d="M307.457,178.175c0.008,1.616-1.353,1.244-2.33,1.248
	c-13.191,0.022-26.386,0.022-39.581,0c-0.978-0.004-2.333,0.349-2.349-1.251c0.583-6.588,0.101-13.18,0.26-19.77
	c0.06-2.462-0.13-4.926,0.105-7.384c0.326-0.333,0.683-0.359,1.062-0.079c1.025,1.313,0.813,2.833,0.822,4.296
	c0.039,6.223-0.023,12.447,0.032,18.667c0.03,3.091,0.333,3.367,3.777,3.378c10.635,0.039,21.269,0.039,31.903,0.004
	c3.716-0.013,3.996-0.291,4.02-3.791c0.048-6.025-0.003-12.053,0.029-18.077c0.006-1.466-0.193-2.981,0.722-4.33
	c0.318-0.328,0.683-0.385,1.097-0.16c0.389,8.004,0.056,16.017,0.184,24.024C307.226,176.023,306.965,177.127,307.457,178.175z"/>
<path fill-rule="evenodd" fill="#9180C3" d="M264.431,150.891c-0.279,0.006-0.558,0.012-0.833,0.018l-0.315,0.009
	c0.729-1.429,2.187-1.076,3.411-1.079c12.62-0.026,25.242-0.035,37.862,0.02c0.991,0.003,2.552-0.722,2.851,1.054
	c-0.132-0.006-0.259-0.009-0.389-0.015c-0.259-0.003-0.521-0.009-0.779-0.014c-1.252,1.016-2.801,0.957-4.314,0.959
	c-11.06,0.024-22.118,0.024-33.18-0.002C267.235,151.84,265.682,151.912,264.431,150.891z"/>
<path fill-rule="evenodd" fill="#7A67B7" d="M263.282,150.917c0,0,0.316-0.009,0.315-0.009c0.036,8.644,0.079,17.289,0.089,25.928
	c0,0.444-0.317,0.889-0.489,1.336C263.227,169.084,263.254,160.001,263.282,150.917z"/>
<path fill-rule="evenodd" fill="#7A67B7" d="M307.018,150.896c0.13,0.009,0.257,0.012,0.389,0.015
	c0.016,9.087,0.035,18.173,0.051,27.264c-0.584-0.436-0.513-1.045-0.509-1.626C306.967,167.996,306.991,159.446,307.018,150.896z"/>
<path fill-rule="evenodd" fill="#8674BD" d="M262.587,164.761c-0.105,0.919-0.738,1.521-1.666,1.483
	c-1.016-0.035-1.935-0.596-1.816-1.67c0.106-0.983,0.925-1.566,2.028-1.456C262.099,163.214,262.638,163.82,262.587,164.761z"/>
<path fill-rule="evenodd" fill="#4E349F" d="M221.826,141.375c0,0.693,0.029,1.387-0.007,2.075
	c-0.075,1.462,0.663,3.172-2.327,3.189c-2.818,0.02-2.56-1.42-2.519-3.048c0.033-1.486,0.037-2.97-0.003-4.455
	c-0.045-1.637-0.274-3.077,2.53-3.038c2.651,0.035,2.352,1.41,2.328,2.898C221.816,139.79,221.826,140.585,221.826,141.375z"/>
<path fill-rule="evenodd" fill="#5E47A8" d="M215.355,143.374c-0.171,1.405,0.857,3.32-2.41,3.312
	c-3.132-0.006-2.541-1.759-2.512-3.352c0.033-1.527-0.773-3.369,2.434-3.378C216.041,139.943,215.279,141.731,215.355,143.374z"/>
<path fill-rule="evenodd" fill="#4E349F" d="M227.784,143.475c-0.38,1.185,0.95,3.071-1.991,3.13
	c-3.284,0.063-2.248-2.022-2.254-3.454c-0.002-1.239-0.963-3.05,1.931-3.128C228.834,139.935,227.413,142.098,227.784,143.475z"/>
<path fill-rule="evenodd" fill="#4E349F" d="M204.473,148.374c7.669,0,15.342,0,23.01,0c0,0.184,0.003,0.363,0.003,0.547
	c-7.678,0-15.355,0-23.032,0C204.46,148.737,204.467,148.558,204.473,148.374z"/>
<path fill-rule="evenodd" fill="#4E349F" d="M199.44,157.041c7.698,0,15.398,0,23.098,0c-0.003,0.186-0.003,0.368-0.003,0.554
	c-7.696,0-15.393,0-23.087,0C199.445,157.409,199.442,157.227,199.44,157.041z"/>
<path fill-rule="evenodd" fill="#B0A5D4" d="M199.499,159.383c5.343,0,10.685,0,16.078,0
	C213.97,160.546,203.355,160.856,199.499,159.383z"/>
<path fill-rule="evenodd" fill="#6851AD" d="M206.748,143.183c1.289-0.137,2.122,0.081,2.165,1.651
	c0.052,2.066-1.385,1.758-2.77,1.802c-1.353,0.044-2.243-0.18-2.281-1.706C203.81,142.877,205.295,143.153,206.748,143.183z"/>
<path fill-rule="evenodd" fill="#6048A9" d="M199.362,126.735c4.663,0,9.321,0,13.981,0c0.006,0.188,0.016,0.381,0.022,0.572
	c-4.66,0-9.317,0-13.977,0C199.379,127.116,199.375,126.924,199.362,126.735z"/>
<path fill-rule="evenodd" fill="#6048A9" d="M199.571,161.748c6.892,0,13.788,0,20.682,0c0,0.094,0,0.186,0,0.278
	c-6.894,0-13.786,0-20.679,0C199.574,161.934,199.574,161.842,199.571,161.748z"/>
<path fill-rule="evenodd" fill="#5036A1" d="M56.455,94.668c0,4.978,0,9.955,0,14.932c-0.219,0.003-0.438,0.007-0.657,0.009
	c0-4.979,0-9.958,0-14.938C56.017,94.672,56.236,94.668,56.455,94.668z"/>
<path fill-rule="evenodd" fill="#4E349F" d="M24.2,108.8c0-4.486,0-8.977,0-13.466c0.108,0,0.217,0,0.326,0
	c0,4.527,0,9.054,0,13.584C24.417,108.878,24.308,108.841,24.2,108.8z"/>
<path fill-rule="evenodd" fill="#4E349F" d="M53.307,95.316c0,2.904,0,5.813,0,8.718c-0.092,0.003-0.184,0.009-0.276,0.012
	c0-2.858,0-5.719,0-8.579C53.123,95.416,53.215,95.365,53.307,95.316z"/>
<path fill-rule="evenodd" fill="#4E349F" d="M42.833,95.284c0,2.978,0,5.956,0,8.933c-0.105,0-0.211,0-0.317,0
	c0-2.98,0-5.956,0-8.933C42.622,95.284,42.728,95.284,42.833,95.284z"/>
<path fill-rule="evenodd" fill="#4E349F" d="M40.221,95.284c0,2.978,0,5.956,0,8.933c-0.105,0-0.211,0-0.317,0
	c0-2.98,0-5.956,0-8.933C40.009,95.284,40.115,95.284,40.221,95.284z"/>
<path fill-rule="evenodd" fill="#4E349F" d="M37.275,104.145c0-2.896,0-5.793,0-8.692c0.092-0.005,0.183-0.009,0.275-0.013
	c0,2.863,0,5.728,0,8.592C37.458,104.069,37.367,104.106,37.275,104.145z"/>
<path fill-rule="evenodd" fill="#5C44A7" d="M150.164,98.54c-0.483,1.021-1.492,0.61-2.267,0.612
	c-8.576,0.034-17.155-0.031-25.73,0.059c-2.104,0.021-2.884-0.519-2.801-2.503c0.151-3.652,0.097-7.312,0.02-10.969
	c-0.033-1.515,0.528-2.104,2.246-2.095c9.012,0.055,18.023,0.032,27.034,0.026c1.215,0,2.131,0.206,2.117,1.598
	c-0.049,4.248-0.042,8.495-0.096,12.744c0,0.197-0.379,0.391-0.583,0.585c-1.753-2.453-0.901-5.199-0.963-7.813
	c-0.132-5.558-0.043-5.564-6.019-5.564c-6.195,0-12.389,0.051-18.583-0.023c-2.491-0.032-3.582,0.817-3.458,3.123
	c0.11,2.071,0.1,4.155,0.004,6.228c-0.108,2.345,1.116,3.111,3.545,3.097c6.953-0.043,13.907-0.032,20.863-0.006
	C147.109,97.644,148.782,97.495,150.164,98.54z"/>
<path fill-rule="evenodd" fill="#E1DDEE" d="M117.598,93.091c-1.271,0.146-1.995-0.38-2.103-1.522
	c-0.114-1.199,0.797-1.368,1.817-1.379C118.451,91.07,118.056,92.077,117.598,93.091z"/>
<path fill-rule="evenodd" fill="#9A8CC8" d="M117.598,93.091c-0.095-0.968-0.189-1.934-0.286-2.901
	C119.311,90.864,119.359,91.352,117.598,93.091z"/>
<path fill-rule="evenodd" fill="#A79AD0" d="M25.285,183.526c-0.406,1.416-1.677,1.152-2.819,1.269
	c-1.62,0.165-3.365-0.566-4.863,0.525c-0.486,0.386-0.973,0.386-1.458-0.004c-1.702-1.14-3.642-0.284-5.45-0.539
	c-0.944-0.133-2.273,0.354-2.264-1.225c0.304-0.244,0.643-0.433,1.015-0.572c4.939-0.473,9.88-0.438,14.823-0.026
	C24.647,183.086,24.985,183.276,25.285,183.526z"/>
<path fill-rule="evenodd" fill="#A699CF" d="M8.432,156.863c-0.079-1.143,0.774-1.215,1.688-1.215c4.504-0.004,9.01-0.004,13.515,0
	c0.915,0,1.767,0.077,1.676,1.222c-0.304,0.243-0.644,0.436-1.019,0.571c-4.947,0.446-9.896,0.458-14.846,0.003
	C9.073,157.302,8.735,157.107,8.432,156.863z"/>
<path fill-rule="evenodd" fill="#4E349F" d="M24.671,156.831c0.215-0.022,0.429-0.009,0.64,0.039
	c-0.009,8.886-0.017,17.77-0.025,26.656c-0.191,0.02-0.381,0.041-0.573,0.061c-0.954-0.954-1.026-2.145-1.034-3.329
	c-0.042-6.695-0.039-13.394,0-20.086C23.686,158.987,23.734,157.792,24.671,156.831z"/>
<path fill-rule="evenodd" fill="#5941A5" d="M8.432,156.863c0.212-0.026,0.425-0.037,0.639-0.032
	c0.941,0.958,0.996,2.151,1.002,3.338c0.04,6.69,0.04,13.385,0,20.078c-0.007,1.184-0.06,2.377-1.001,3.34
	c-0.214,0.007-0.428-0.009-0.641-0.034C8.431,174.654,8.432,165.759,8.432,156.863z"/>
<path fill-rule="evenodd" fill="#7F6CBA" d="M16.145,185.316c0.486,0,0.972,0.004,1.458,0.004c1.25,0.636,1.763,1.512,0.702,2.595
	c-0.841,0.855-1.942,0.888-2.811,0.022C14.417,186.864,14.942,185.987,16.145,185.316z"/>
<path fill-rule="evenodd" fill="#5239A2" d="M85.362,101.445c-0.325,0-0.657,0.038-0.974-0.006
	c-1.311-0.191-3.315,0.665-3.796-0.512c-0.551-1.346,1.547-1.543,2.588-2.102c1.535-0.819,0.536-1.611,0.094-2.448
	c-0.717-1.352-0.577-2.699,0.331-3.904c0.763-1.012,2.007-0.713,2.982-0.439c2.521,0.713,2.057,2.91,1.423,4.134
	c-1,1.939-0.415,2.618,1.432,3.255c0.669,0.231,1.474,0.654,1.168,1.52c-0.262,0.737-1.079,0.472-1.675,0.49
	C87.744,101.471,86.552,101.442,85.362,101.445z"/>
<path fill-rule="evenodd" fill="#7A67B8" d="M46.222,126.457c0,7.746,0,15.495,0,23.241c-0.124,0-0.247,0-0.371,0.003
	c0-7.767,0-15.535,0-23.303C45.975,126.419,46.099,126.437,46.222,126.457z"/>
<path fill-rule="evenodd" fill="#FAFAFC" d="M266.306,60.494c-0.209,1.7-1.215,2.825-3.088,2.881c-1.871,0.057-3.129-1-3.207-2.702
	c-0.088-1.851,1.144-3.036,3.177-3.034C265.065,57.643,266.055,58.811,266.306,60.494z"/>
<path fill-rule="evenodd" fill="#FAFAFC" d="M263.269,88.419c-1.851-0.167-3.156-1.018-3.262-2.727
	c-0.111-1.855,1.106-3.056,3.132-3.078c1.864-0.021,3.039,1.093,3.104,2.805C266.306,87.175,265.065,88.063,263.269,88.419z"/>
<path fill-rule="evenodd" fill="#FAF9FC" d="M189.893,83.101c1.993,0.351,3.233,1.261,3.189,2.995
	c-0.051,1.865-1.353,2.976-3.373,2.835c-1.826-0.128-2.985-1.28-2.862-3.019C186.962,84.192,188.282,83.391,189.893,83.101z"/>
<path fill-rule="evenodd" fill="#FAF9FC" d="M193.149,99.086c-0.167,1.72-1.173,2.847-3.033,2.938
	c-1.874,0.093-3.145-0.961-3.262-2.654c-0.124-1.854,1.101-3.049,3.125-3.082C191.863,96.256,192.867,97.417,193.149,99.086z"/>
<path fill-rule="evenodd" fill="#FAF9FC" d="M193.149,35.014c-0.264,1.675-1.288,2.79-3.164,2.794
	c-1.865,0.004-3.108-1.061-3.132-2.776c-0.026-1.853,1.229-3.017,3.26-2.958C191.979,32.127,192.964,33.302,193.149,35.014z"/>
<path fill-rule="evenodd" fill="#FAF9FC" d="M189.78,45.05c2.024,0.287,3.28,1.176,3.302,2.902c0.021,1.875-1.259,3.006-3.276,2.928
	c-1.838-0.071-3.013-1.193-2.963-2.932C186.894,46.207,188.21,45.402,189.78,45.05z"/>
<path fill-rule="evenodd" fill="#FEFEFE" d="M153.387,135.134c0,14.269,0,28.536,0,42.803c-27.001,0.012-54,0.022-81,0.035
	c0.003-14.279,0.006-28.558,0.009-42.838C99.393,135.134,126.39,135.134,153.387,135.134z"/>
<path fill-rule="evenodd" fill="#FEFEFE" d="M115.178,23.534c0.682-4.026,3.473-6.4,7.492-6.427c3.8-0.026,7.103,2.34,7.771,5.567
	c0.737,3.568-1.249,6.805-4.861,8.144c-1.626,0.603-2.227,0.481-2.286-1.337c-0.186-5.738-0.267-5.734-6.501-5.845
	C116.257,23.626,115.72,23.569,115.178,23.534z"/>
<path fill-rule="evenodd" fill="#FEFEFE" d="M264.431,150.891c13.937-0.003,27.871-0.006,41.808-0.008
	c0.031,8.396,0.025,16.791,0.125,25.185c0.02,1.71-0.689,2.188-2.477,2.183c-12.373-0.053-24.74-0.053-37.112,0
	c-1.782,0.006-2.504-0.462-2.484-2.177C264.397,167.681,264.395,159.284,264.431,150.891z"/>
<path fill-rule="evenodd" fill="#FEFEFE" d="M150.164,98.54c-9.12,0-18.241-0.052-27.361,0.033c-2.021,0.02-2.893-0.341-2.773-2.392
	c0.196-3.353,0.118-6.721,0.023-10.08c-0.04-1.422,0.483-1.861,2.036-1.851c8.686,0.055,17.373,0.059,26.06-0.003
	c1.62-0.011,2.006,0.536,1.98,1.896c-0.073,4.15-0.025,8.303-0.025,12.454L150.164,98.54z"/>
<path fill-rule="evenodd" fill="#FEFEFE" d="M9.072,183.587c0-8.921-0.001-17.84-0.001-26.756c5.199,0,10.399,0,15.6,0
	c0.014,8.916,0.028,17.835,0.042,26.756C19.498,183.587,14.286,183.587,9.072,183.587z"/>
</svg>
