<svg xmlns="http://www.w3.org/2000/svg" viewBox="0 0 449.21 461.06"><defs><style>g:hover > path{fill:#00A382;stroke:#00837E;stroke-miterlimit:1;}path, text{cursor: pointer;transition:fill 200ms;}.cls-1{fill:#3d73b7;}.cls-2,.cls-3{font-size:21px;font-family:MicrosoftYaHei, Microsoft YaHei;}.cls-3{fill:#fff;}.cls-4{fill:#83a375;stroke:#d2dc45;stroke-miterlimit:10;}</style><radialGradient id="hovergradient" cx="256.39" cy="252.67" r="196.17" gradientUnits="userSpaceOnUse"><stop offset="0" stop-color="#1dc670"/><stop offset="0.23" stop-color="#1ab86f"/><stop offset="0.66" stop-color="#11936e"/><stop offset="0.99" stop-color="#09716c"/></radialGradient></defs><title>map5</title><g id="city_zhoushan"><path class="cls-1" d="M455,158c5,5,8,5,10,5s3-5,6-3,8,7,11,6,12-3,2-8-12-6-19-8-12,0-15-2-4,1-1,4Z" transform="translate(-52.29 -48.96)"/><path class="cls-1" d="M461,130c5,4,8,7,7,10s0,8,2,5,1-5,0-8,1-2,2-5,0-6-2-7-1,2-5,2-6-1-5,1Z" transform="translate(-52.29 -48.96)"/><path class="cls-1" d="M484,129c-4,0-8,1-6,3s5,4,8,2,6-2,6-3-2-2-4-2Z" transform="translate(-52.29 -48.96)"/><path class="cls-1" d="M447,164c0,2.76-3,5-6.63,5-.91,0-3.37-2.5-3.37-5s2.46-5,3.37-5C444,159,447,161.24,447,164Z" transform="translate(-52.29 -48.96)"/><path class="cls-1" d="M493.5,170c-1,2-2,9,1,6s6-6,3-6Z" transform="translate(-52.29 -48.96)"/><path class="cls-1" d="M485,178c-4,3-4,5-2,7s5,2,4-2,1-2,2-5S485,178,485,178Z" transform="translate(-52.29 -48.96)"/><path class="cls-1" d="M481,191s4,4,5,2-3-4-4-4-3,0-2,1Z" transform="translate(-52.29 -48.96)"/><path class="cls-1" d="M461,195c1,1,6-1,8,1s4,6,5,6,8-4,7-5-9,0-10-2-3-5-5-5-3,2-4,3A3.1,3.1,0,0,0,461,195Z" transform="translate(-52.29 -48.96)"/><path class="cls-1" d="M491,75c0,1,0,3,2,3s4-2,2-3A4.83,4.83,0,0,0,491,75Z" transform="translate(-52.29 -48.96)"/><text class="cls-2" transform="translate(407.21 64.12)">舟山</text></g><g id="city_jiaxing"><path class="cls-1" d="M325,56c-8,0-10,4-13,8s0,10-5,12-7-1-10,2-7,9-10,14c-2.91,4.85-14,10-15,11s-4,6,1,14,3,4,4,8,1,9,3,9,8-9,19-7,15,7,20,7,12-7,15-12-1-8,2-13,11-2,14-5,5-8,8-10,5-1,6-3-6-9-10-10-4-3-6-7c-1.84-3.69-5,7-9,5s-6-5-5-9-1-9-3-11S325,56,325,56Z" transform="translate(-52.29 -48.96)"/><text class="cls-3" transform="translate(239.38 60.71)">嘉兴</text></g><g id="city_huzhou"><path class="cls-1" d="M229,53c5,4,3,12,16,19s31,3,35,8,6,12,0,15-15,10-12,17-1,8-5,8-15-2-18,3a12.21,12.21,0,0,1-10,6c-2,0-16-10-22-9s-4,4-4,4,1,9,0,12-1,1-2,0-2-5-7-5-10,5-15,6-8-9-12-11-13-11,2-14,16-7,16-12,2-8,8-17-2-19,0-27,7-7,21-7C220,49,224,49,229,53Z" transform="translate(-52.29 -48.96)"/><text class="cls-3" transform="translate(153.71 56.01)">湖州</text></g><g id="city_wenzhou"><path class="cls-1" d="M237,471c5,9,14,26,18,26s12-5,16-6,3,4,8,0,10-11,17-10,13,8,16,19,5,11,6,9,0-6,2-5,2,5,5,3,1-5,2-8,5-5,2-8-4-11-1-11,6,4,10,1,3-14-1-12-8-3-10-7,1-6,5-6,6-9,4-10-3-3,3-4,7-8,8-11,12-10,7-14-14,1-16-3-7-14,2-10,11,5,20,4,9-5,7-11,5-10,7-11,5-7-1-10,1-7,4-7,0-3,3-5,4-10,2-16-4-10-9-9-5,7-7,7-4-5-6-4-8,8-10,7a10.24,10.24,0,0,1-5-6c-1-3-3-7-7-7s-8,0-13,5-8,6-11,4-6-5-9-2-6,6-7,11-2,11,5,15,4,14,0,27-12,19-16,21-9-3-11-3-5,6-9,5-6-5-10-4-8,2-7,10-16,21-16,21-7,6-6,8S237,471,237,471Z" transform="translate(-52.29 -48.96)"/><text class="cls-3" transform="translate(218.21 409.54)">温州</text></g><g id="city_lishui"><path class="cls-1" d="M148,353c-8,7-9,6-12,7s-9,0-8,7,2,7,1,13-1,10,4,12,8,13,5,20-7,15,0,20,14,20,14,27,0,6,2,8,2,6,0,9,1,9,12,7,12,1,16,3,11,4,18-3,12-10,13-9-1-11,4-15,6-1,8-7,11-13,14-15,7-11,8-17,9-10,14-7,9,3,13,0,4,1,8,2,11-3,15-15,9-21,6-25-14-8-10-16-2-7-4-9-6.74-5.26-2-10c5-5,1-9,4-15a48.74,48.74,0,0,0,4-13s-3,1-4,0-5-6-5-7-5,7-9,11-9,6-21,7-7-6-17,16-30,13-30,13-9-11-8-17-2-10-7-11-12-1-18,4-11,7-15,7-7,5-8,9S148,353,148,353Z" transform="translate(-52.29 -48.96)"/><text class="cls-3" transform="translate(124.46 358.04)">丽水 </text></g><g id="city_taizhou"><path class="cls-1" d="M350,253c-15,7-13,9-19,11s-2,21-6,27-5,10-10,14-5,5-13,7-7,15-8,18,1,9-2,11-1,5,0,6,6,1,8-2,6-5,11-5,4,5,7,4,10-12,18-11,12,9,13,11,4,2,6,0,1-5,6-4,4,3,5,3,1-7,7-7,10,3,12,13-2,12,2,13,6,2,5,6,1,6,3,7,1,2,3,5,3,4,6-3,4-11,8-12,8,1,12,4,10-1,3-8-7-9-7-13-1-5-6-7,1-9-2-12c-7.44-7.44-6.22-4.89,0-8,8-4,17-9,13-13s-29-20-11-16,11,0,11-5,0-3-4-4-2-7-4-8-8,2-15,1-2-5-7-7-12,3-19-3-7-8-7-11v-7Z" transform="translate(-52.29 -48.96)"/><text class="cls-3" transform="translate(289.46 266.04)">台州</text></g><g id="city_jinhua"><path class="cls-1" d="M225,231c-3,9-4,19-11,21s-7,9-10,9-9-3-12-4-8,0-10,8-5,6-5,10a12.07,12.07,0,0,0,3,8c1,1,1,6,0,10s-2,19,4,24,4,4,12,5,8,15,8,15,1.46,13.92,9,15c7,1,14,1,21-11,7.16-12.28,7-17,9-19s17-3,23-2,15-10,15-11,2-7,5-7,4,10,12,9,15-5,21-15,4-23,4-26,4-6,6-7,1-5,0-7-14-3-19-5-6-8-10-10-12,1-15,2-5,0-7-1-4-8-5-8-3-1-12,3-5-4-11-8-5-8-3-11,6-9,1-9-9,1-6,4,4,7-1,8-8-1-10,1S225,231,225,231Z" transform="translate(-52.29 -48.96)"/><text class="cls-3" transform="translate(143.71 258.71)">金华</text></g><g id="city_quzhou"><path class="cls-1" d="M73,258c-10,12-2,14-7,19s-8,1-12,8-1,23,9,26,8,2,10,6,3,5,6,8-1,5,8,7,12,31,11,33,1,4,3,7,1,12,0,15-3,16,3,12,8-9,12-5,9-3,9-5,2-11,0-18,1-13,10-14,15-12,16-15,2-9,11-10,16-9,18-10,2-2-1-6-3-19-3-22,1-6,2-7-1-5-2-6-2-1-3-4-1-9-6-3-7,4-12,4-13-4-16-6-10,2-14,6-4,9-9,8-10-8-11-12-1-5-5-7-6,1-9-1,0-4-3-5-4,1-5-3c0,0,2-5-4-3S73,258,73,258Z" transform="translate(-52.29 -48.96)"/><text class="cls-3" transform="translate(52.55 273.04)">衢州</text></g><g id="city_ningbo"><path class="cls-1" d="M336,155s10,9,12,12,2,4,2,8,1,8,5,10,6,6,3,9-10,7-4,14,21,11,22,24-8,18-2,26,13,7,19,7,12,0,13-3,4-10,9-12,8-2,7,8,6-1,7-6,4-20,9-7-4,21,7,15,8-8,3-10-1-4,0-5,2-2,0-3-7-4-2-8,6-6,2-8-8-4-4-8,6-5-1-7-17,13-23,16-11,8-17,7-12-5,0-11,16-2,24-12,0-7,10-15,26-17,22-18-30-1-39-6-23-14-29-26-29-8-36-4S336,155,336,155Z" transform="translate(-52.29 -48.96)"/><text class="cls-3" transform="translate(320.34 154.04)">宁波</text></g><g id="city_shaoxing"><path class="cls-1" d="M292,158c9,0,14-1,16,1s5,3,10,3,13-3,14-4,12,8,13,10-1,11,3,15,11,5,4,12-4,14,7,21,14,10,13,18,3,10-16,15-22,12-23,12,1-6-2-9-14-1-20-5-9-10-14-11-10,3-13,4-9-2-9-5-1-4-3-4-11,6-12,5-12-11-12-15,5-7,5-10-4-5-3-9,9-7,10-8,4-5,7-6,9,0,11-1,2-9,2-11-2-7-3-11,2-5,4-6S292,158,292,158Z" transform="translate(-52.29 -48.96)"/><text class="cls-3" transform="translate(234.71 164.04)">绍兴 </text></g><g id="city_hangzhou"><path class="cls-1" d="M263,122c-7,0-10-1-15,3s-5,8-11,7-15-8-19-9-7,1-6,9-2,10-5,8-3-5-7-5-4,4-9,4-6-1-8,2-3,6-12,7-3,9-14,7-14-5-21-4-6,4-5,8,3,8-1,12,6,16,5,22-2,12-11,16-1,16-7,22-12,2-15,6a105.92,105.92,0,0,1-10,12c-4,4-7,7-2,12s7,4,10,5,5-2,8,7,8,11,10,11,11-15,18-15,12,6,16,7,5,1,9,0,7-6,10-6,4,2,6,0,5-16,11-17,12,8,15,6,7-10,9-10,7-1,8-8,7-20,11-21,10,0,11-1-3-7-4-9,5-3,8-3-2-8,3-10,12-6,14-10,13,1,14-1,2-14,0-16-6-9,2-12,24-2,26-2-4-4-4-4,2-13,0-14-11-1-20,9-20,6-14,3,14.23-6.69,11-11c-3-4-3-13-4-16S263,122,263,122Z" transform="translate(-52.29 -48.96)"/><text class="cls-3" transform="translate(107.05 164.37)">杭州</text></g><g id="city_yiwu"><path class="cls-4" d="M273,233s-9,0-11,3-2,10-8,11-12,2-15,7-3,4,0,7-1,7,2,10,5,3,5,9-5,14,5,11,12-5,16-5-3-6-2-10,7-10,10-14-1-8,1-11,3-6,1-11S273,233,273,233Z" transform="translate(-52.29 -48.96)"/><text class="cls-3" transform="translate(184.05 220.71)">义乌</text></g></svg>