<?xml version="1.0" standalone="no"?><!DOCTYPE svg PUBLIC "-//W3C//DTD SVG 1.1//EN" "http://www.w3.org/Graphics/SVG/1.1/DTD/svg11.dtd"><svg t="1511838262596" class="icon" style="" viewBox="0 0 1024 1024" version="1.1" xmlns="http://www.w3.org/2000/svg" p-id="18755" xmlns:xlink="http://www.w3.org/1999/xlink" width="24" height="24"><defs><style type="text/css"></style></defs><path d="M751.798894 1011.263682 206.684466 560.39801c-20.378109-17.830846-25.472637-50.945274-7.641791-71.323383l0 0c17.830846-20.378109 50.945274-25.472637 71.323383-7.641791l545.114428 450.865672c20.378109 17.830846 25.472637 50.945274 7.641791 71.323383l0 0C805.291431 1026.547264 774.724267 1029.094527 751.798894 1011.263682z" p-id="18756" fill="#ffffff"></path><path d="M206.684466 478.885572 736.515311 12.736318c20.378109-17.830846 53.492537-15.283582 71.323383 5.094527l0 0c17.830846 20.378109 15.283582 53.492537-5.094527 71.323383L272.913321 555.303483c-20.378109 17.830846-53.492537 15.283582-71.323383-5.094527l0 0C183.759093 529.830846 186.306356 499.263682 206.684466 478.885572z" p-id="18757" fill="#ffffff"></path></svg>