<?xml version="1.0" standalone="no"?><!DOCTYPE svg PUBLIC "-//W3C//DTD SVG 1.1//EN" "http://www.w3.org/Graphics/SVG/1.1/DTD/svg11.dtd"><svg t="1514452418283" class="icon" style="" viewBox="0 0 1024 1024" version="1.1" xmlns="http://www.w3.org/2000/svg" p-id="3111" xmlns:xlink="http://www.w3.org/1999/xlink" width="32" height="32"><defs><style type="text/css"></style></defs><path d="M988.28209 431.238596L566.706476 21.283135a80.806816 80.806816 0 0 0-109.345201 0L35.741138 431.238596a41.405145 41.405145 0 0 0-2.982951 58.14529 40.425669 40.425669 0 0 0 57.566509 2.982952L511.989353 82.411377l421.664658 409.955461a40.425669 40.425669 0 0 0 57.566509-2.982952 41.405145 41.405145 0 0 0-2.93843-58.14529z m-468.991184 98.660002h173.990654c19.322401 0 34.949504 16.027798 34.949504 35.61733 0 19.589531-15.627103 35.483764-34.949504 35.483764h-150.349652v92.471492h96.656528c19.27788 0 34.949504 15.938755 34.949504 35.528286 0 19.589531-15.671625 35.528286-34.949504 35.528286h-96.745571v68.118142c0 19.589531-15.671625 35.528286-34.949504 35.528286a35.261156 35.261156 0 0 1-34.949505-35.528286v-68.118142H378.646977a35.261156 35.261156 0 0 1-34.949505-35.528286c0-19.589531 15.671625-35.528286 34.949505-35.528286h94.385923v-92.560535h-148.702351A35.261156 35.261156 0 0 1 289.381045 565.426884c0-19.589531 15.671625-35.528286 34.949504-35.528286h172.744048a34.548809 34.548809 0 0 1-13.579107-8.548159L380.205235 416.858099a36.196111 36.196111 0 0 1 0-50.309477 34.726896 34.726896 0 0 1 49.508088 0l78.358124 79.604731 78.358125-79.604731a34.726896 34.726896 0 0 1 49.508088 0 36.196111 36.196111 0 0 1 0 50.309477l-102.755996 104.403297a35.528286 35.528286 0 0 1-13.890758 8.637202z m356.35138 53.381473a40.959929 40.959929 0 0 1 40.781842 41.182537v317.127796A81.919858 81.919858 0 0 1 834.860444 1024H189.118263a81.919858 81.919858 0 0 1-81.563684-82.409596v-317.127796a40.959929 40.959929 0 0 1 40.781842-41.182537 40.959929 40.959929 0 0 1 40.781842 41.182537v317.127796h645.786703v-317.127796a40.959929 40.959929 0 0 1 40.73732-41.182537z" fill="#ff6600" p-id="3112"></path></svg>