<?xml version="1.0" encoding="utf-8"?>
<!-- Generator: Adobe Illustrator 15.0.0, SVG Export Plug-In . SVG Version: 6.00 Build 0)  -->
<!DOCTYPE svg PUBLIC "-//W3C//DTD SVG 1.1//EN" "http://www.w3.org/Graphics/SVG/1.1/DTD/svg11.dtd">
<svg version="1.1" id="图层_1" xmlns="http://www.w3.org/2000/svg" xmlns:xlink="http://www.w3.org/1999/xlink" x="0px" y="0px"
	 width="33px" height="33px" viewBox="0 0 33 33" enable-background="new 0 0 33 33" xml:space="preserve">
<path id="Note" fill="#878787" d="M16.521,5.17H2.049v25.77h23.689V17.811l2.061-1.971v15.1C27.8,32.077,26.879,33,25.741,33
	c-0.001,0-0.001,0-0.003,0H2.049c-1.137,0.001-2.059-0.921-2.06-2.058c0-0.001,0-0.001,0-0.003V5.17
	c-0.001-1.14,0.92-2.066,2.06-2.07h16.5l0.053,0.06L16.521,5.17z M28.32,2.05c0.622,0.035,1.205,0.312,1.625,0.771
	c0.55,0.441,0.904,1.08,0.988,1.78c-0.066,0.729-0.414,1.404-0.971,1.88c-0.574,0.59-5.063,5.03-13.341,13.2l-0.634,0.62
	c-0.949,0.3-3.222,1.03-4.94,1.58c0.553-1.83,1.217-4.04,1.513-5.08C14.33,15.03,26.027,3.34,26.473,2.9
	c0.494-0.497,1.15-0.798,1.85-0.85 M28.322-0.01c-1.244,0.049-2.423,0.567-3.301,1.45C24.54,1.91,10.886,15.56,10.886,15.56
	c-0.108,0.108-0.186,0.243-0.225,0.39c-0.37,1.37-2.224,7.45-2.242,7.51c-0.096,0.308-0.011,0.644,0.219,0.87
	c0.159,0.166,0.379,0.26,0.609,0.26c0.089-0.004,0.178-0.017,0.265-0.04c0.063-0.03,6.325-2.05,7.356-2.36
	c0.136-0.039,0.26-0.111,0.36-0.209C17.879,21.33,30.43,8.97,31.445,7.92c0.95-0.865,1.51-2.076,1.553-3.36
	c-0.078-1.25-0.664-2.413-1.622-3.22c-0.796-0.84-1.894-1.326-3.05-1.35l0,0H28.322z"/>
</svg>
