<?xml version="1.0" encoding="utf-8"?>
<!-- Generator: Adobe Illustrator 15.0.0, SVG Export Plug-In . SVG Version: 6.00 Build 0)  -->
<!DOCTYPE svg PUBLIC "-//W3C//DTD SVG 1.1//EN" "http://www.w3.org/Graphics/SVG/1.1/DTD/svg11.dtd">
<svg version="1.1" id="图层_1" xmlns="http://www.w3.org/2000/svg" xmlns:xlink="http://www.w3.org/1999/xlink" x="0px" y="0px"
	 width="32px" height="32px" viewBox="0 0 32 32" enable-background="new 0 0 32 32" xml:space="preserve">
<path id="Clock" fill="#878787" d="M15.99,2c7.737-0.005,14.014,6.263,14.02,14s-6.262,14.015-14,14.02
	c-7.737,0.006-14.014-6.262-14.02-14c0-0.009,0-0.017,0-0.026C2,8.267,8.263,2.006,15.99,2 M15.99,0C7.157,0.004,0,7.167,0.004,16
	c0.004,8.832,7.167,15.99,16,15.986c8.83-0.004,15.986-7.164,15.986-15.993C31.986,7.159,24.824,0,15.99,0L15.99,0z M15.99,5
	c0.553,0,1,0.448,1,1v10c0,0.553-0.447,1-1,1s-1-0.447-1-1V6C14.99,5.448,15.438,5,15.99,5z M21.709,21.721
	c-0.391,0.391-1.023,0.391-1.414,0l-4.949-4.947c-0.378-0.403-0.358-1.036,0.045-1.414c0.385-0.361,0.984-0.361,1.369,0l4.949,4.947
	C22.1,20.697,22.1,21.33,21.709,21.721c0,0.001,0,0.001,0,0.002V21.721z"/>
</svg>
