<?xml version="1.0" standalone="no"?><!DOCTYPE svg PUBLIC "-//W3C//DTD SVG 1.1//EN" "http://www.w3.org/Graphics/SVG/1.1/DTD/svg11.dtd"><svg t="1506403506429" class="icon" style="" viewBox="0 0 1024 1024" version="1.1" xmlns="http://www.w3.org/2000/svg" p-id="17795" xmlns:xlink="http://www.w3.org/1999/xlink" width="48" height="48"><defs><style type="text/css"></style></defs><path d="M607.5 739l-64.3 64.3V457.4c0-17.2-14-31.2-31.2-31.2s-31.2 14-31.2 31.2v345.9L416.5 739c-12.2-12.2-31.9-12.2-44.1 0-12.2 12.2-12.2 31.9 0 44.1l108.4 108.4 2.7 2.7 10.8 9.7c5 3.6 11.1 5.9 17.7 5.9s12.7-2.3 17.7-5.9l10.8-9.7 2.7-2.7 108.4-108.4c12.2-12.2 12.2-31.9 0-44.1-12.2-12.2-31.9-12.2-44.1 0z m60.1-464c-30.5-26.8-68.4-44.6-114.6-50l-0.2 0.4c-2.2-0.7-4.5-1.4-6.9-1.4-13 0-23.4 10.4-23.3 23.2 0.1 9.9 6.4 18.2 15.3 21.6l-0.2 0.4c2 0.1 3.8 0.5 5.8 0.7 0.9 0.1 1.7 0.5 2.7 0.5 0.2 0 0.4-0.1 0.7-0.1 38 3.8 66.1 16.9 90.1 40 0 0 11.7 8.5 19.4 8.5 13 0 23.4-10.4 23.3-23.2 0.1-8.8-12.1-20.6-12.1-20.6z m176.6 83.8c-36.8-140.6-164.4-244.6-316.6-244.6-149.4 0-275.2 100.1-314.6 236.9C108.5 367.3 28.4 457.5 28.4 566.6c0 110 81.4 200.1 187.2 215.3h46.8c17.2 0 31.2-14 31.2-31.2s-14-31.2-31.2-31.2h-46.8C144.4 705 90.8 642.1 90.8 566.6c0-86.2 69.8-156 156-156 5.9 0 11.7 0.4 17.5 1 15.1-132.2 127.1-235 263.3-235 136.1 0 248.1 102.6 263.3 234.7 79.7 6.9 142.3 73.8 142.3 155.3 0 75.5-53.6 138.4-124.8 152.9h-46.8c-17.2 0-31.2 14-31.2 31.2s14 31.2 31.2 31.2H824c98.1-21.5 171.6-110.8 171.6-215.3 0-97.2-63.6-179.6-151.4-207.8zM730 364.4s-0.2-1.6-0.5-2.3c-0.3-0.7-0.6-1.3-0.9-1.9-2.2-4.9-4.7-9.5-7.1-14.2 0 0-12.7-18.1-24-18.1-13 0-23.4 10.4-23.3 23.2 0 3.7 1.9 10.3 1.9 10.3 3.4 5.8 6.8 11.5 10.2 17.8 0 0.1 0.1 0.1 0.1 0.2 1.3 2.4 4.6 6.7 4.6 6.7 4.3 4.5 10.3 7.3 17 7.3 13 0 23.4-10.4 23.3-23.2 0-2-0.7-3.9-1.3-5.8z" fill="#66cccc" p-id="17796"></path></svg>