<?xml version="1.0" standalone="no"?><!DOCTYPE svg PUBLIC "-//W3C//DTD SVG 1.1//EN" "http://www.w3.org/Graphics/SVG/1.1/DTD/svg11.dtd"><svg t="1511429174151" class="icon" style="" viewBox="0 0 1024 1024" version="1.1" xmlns="http://www.w3.org/2000/svg" p-id="18486" xmlns:xlink="http://www.w3.org/1999/xlink" width="24" height="24"><defs><style type="text/css"></style></defs><path d="M858.672 879.73h-46.495c-8.949-116.189-85.35-213.587-190.508-254.485-33.419 15.875-70.725 25.043-110.277 25.043s-76.858-9.149-110.277-25.043c-105.155 40.899-181.537 138.297-190.508 254.485h-46.495c8.295-124.087 83.188-229.997 189.595-283.617-59.355-46.218-97.595-117.739-97.595-198.227 0-139.407 114.284-252.402 255.28-252.402s255.28 112.995 255.28 252.402c0 80.489-38.241 152.009-97.595 198.227 106.406 53.619 181.298 159.529 189.595 283.617zM720.257 397.887c0-114.046-93.508-206.501-208.863-206.501s-208.863 92.455-208.863 206.501 93.508 206.501 208.863 206.501 208.863-92.455 208.863-206.501z" p-id="18487" fill="#999999"></path></svg>