<?xml version="1.0" standalone="no"?><!DOCTYPE svg PUBLIC "-//W3C//DTD SVG 1.1//EN" "http://www.w3.org/Graphics/SVG/1.1/DTD/svg11.dtd"><svg t="1511417594382" class="icon" style="" viewBox="0 0 1036 1024" version="1.1" xmlns="http://www.w3.org/2000/svg" p-id="12882" xmlns:xlink="http://www.w3.org/1999/xlink" width="24.28125" height="24"><defs><style type="text/css"></style></defs><path d="M980.292683 163.515317L673.067707 247.508293v54.534244h298.446049v138.439804H505.256585V302.042537L362.146341 337.170732l-28.884292-148.392586L505.756098 143.609756 505.256585 4.195902h167.811122v92.384781L936.585366 28.097561l43.707317 135.417756zM329.078634 448.874146H165.463415V264.579122l-83.905561 67.034537L0 209.170732 270.336 0H483.902439L329.078634 130.347707v318.526439z m117.560195 184.594732h171.994537v109.068488l406.92761 130.048-58.817561 146.731707-427.91961-150.92761L106.146341 1019.317073l-53.085658-146.731707 393.578146-130.048v-109.068488zM131.908683 797.07161V469.853659H949.947317v327.217951l-167.798634-49.95122V608.293463H299.707317v138.826927l-167.811122 49.95122z" p-id="12883" fill="#66cccc"></path></svg>