<?xml version="1.0" encoding="utf-8"?>
<!-- Generator: Adobe Illustrator 21.0.0, SVG Export Plug-In . SVG Version: 6.00 Build 0)  -->
<svg version="1.1" id="图层_1" xmlns="http://www.w3.org/2000/svg" xmlns:xlink="http://www.w3.org/1999/xlink" x="0px" y="0px"
	 viewBox="0 0 56.7 56.7" style="enable-background:new 0 0 56.7 56.7;" xml:space="preserve">
<style type="text/css">
	.st0{fill:#868686;}
</style>
<path id="hpl" class="st0" d="M43.8,26.8c-0.1,1.2-0.9,2.1-2,2.4c0.7,0.1,1.2,1.1,1.2,2.1c0,1.2-0.9,2.3-2,2.5
	c0.9,0,1.1,1.5,1.1,2.3c0,2-2.3,2.4-2.2,2.4c1.1,0,1.2,1.9,1.2,2.2c0,6-6.5,5.4-7.2,5.4s-8.3,0.2-14.2,0.1c-5.6,0-6.5-4.3-6.5-4.3
	C13.1,41.4,13,40.7,13,40C12.8,35.9,12.9,26,12.9,26c0.3-0.9,0.8-1.7,1.5-2.3c1.8-1.3,4.8-2.1,5.9-3.8c1.4-2,1.4-3.9,1.8-5.4
	c0.8-2.5,1.9-4.2,5.9-4.2c3.2,0,5,1.7,5.6,3.9c0.8,3.2-0.5,7.3-0.4,7.3c0.2,0,7.3-0.1,9.1,1.3C42.8,23.3,43.9,23.6,43.8,26.8z
	 M37.3,24.6h-8.7c1.5-2.4,2.3-5.3,2.2-8.1c-0.4-1.9-1.4-2.8-2.9-2.8c-1.1,0-2.3,0.8-2.4,3.1c0,4-5,7.8-7.4,8.8
	c-1.7,0.7-1.8,2.4-1.8,3.9v9c0,2.4,1.8,4.3,4.2,4.4c0.1,0,0.2,0,0.4,0h12.6c1.3,0,3.4-0.7,3.4-2.3c0.1-1.2-0.9-2.2-2.1-2.3
	c0,0-0.1,0-0.1,0c1.7,0,3.3-1,3.3-2.3c0-1.3-1.1-2.3-2.4-2.3h0.9c1.3,0,2.4-1,2.4-2.3c0-1.3-1.1-2.3-2.4-2.2c0,0,0,0,0,0h0.9
	c1.3,0,2.4-1,2.4-2.4C39.7,25.6,38.6,24.6,37.3,24.6C37.4,24.6,37.3,24.6,37.3,24.6L37.3,24.6z"/>
</svg>
