<?xml version="1.0" encoding="utf-8"?>
<!-- Generator: Adobe Illustrator 21.0.0, SVG Export Plug-In . SVG Version: 6.00 Build 0)  -->
<svg version="1.1" id="图层_1" xmlns="http://www.w3.org/2000/svg" xmlns:xlink="http://www.w3.org/1999/xlink" x="0px" y="0px"
	 viewBox="0 0 56.7 56.7" style="enable-background:new 0 0 56.7 56.7;" xml:space="preserve">
<style type="text/css">
	.st0{fill:#868686;}
</style>
<path id="Speedometer" class="st0" d="M28.3,43.3c-8.3,0-15-6.7-15-15s6.7-15,15-15s15,6.7,15,15S36.6,43.3,28.3,43.3L28.3,43.3z
	 M39.3,23.6L38,24.3c-0.4,0.2-0.9,0.1-1.1-0.3c-0.2-0.4-0.1-0.9,0.3-1.1c0,0,0,0,0,0l1.3-0.7c0,0,0.1,0,0.1,0
	c-0.9-1.4-2-2.6-3.3-3.6c0,0.1,0,0.3-0.1,0.4l-0.8,1.3c-0.2,0.3-0.4,0.4-0.7,0.4c-0.1,0-0.3,0-0.4-0.1c-0.4-0.2-0.5-0.7-0.3-1.1
	c0,0,0,0,0,0l0.8-1.3c0.1-0.2,0.2-0.3,0.4-0.3c-3.6-2-8-2-11.6,0c0.2,0.1,0.4,0.2,0.5,0.4l0.8,1.3c0.2,0.4,0.1,0.9-0.3,1.1
	c0,0,0,0,0,0c-0.1,0.1-0.3,0.1-0.4,0.1c-0.3,0-0.6-0.1-0.7-0.4L21.6,19c-0.1-0.1-0.1-0.3-0.1-0.5c-1.4,1-2.5,2.2-3.4,3.6
	c0.1,0,0.1,0,0.2,0.1l1.3,0.7c0.4,0.2,0.5,0.7,0.3,1.1c0,0,0,0,0,0c-0.2,0.3-0.4,0.4-0.7,0.4c-0.1,0-0.3,0-0.4-0.1l-1.3-0.7
	c0,0,0,0-0.1-0.1c-0.6,1.4-1,2.9-1,4.4h1.3c0.4,0,0.8,0.4,0.8,0.8s-0.4,0.8-0.8,0.8c0,0,0,0,0,0h-1.3c0.1,1.5,0.6,2.9,1.2,4.2
	l1.1-0.6c0.4-0.2,0.9-0.1,1.1,0.3c0.2,0.4,0.1,0.9-0.3,1.1c0,0,0,0,0,0l-1.1,0.6c3.7,5.5,11.2,6.9,16.6,3.1c1.2-0.8,2.3-1.9,3.1-3.1
	l-1.1-0.6c-0.4-0.2-0.5-0.7-0.3-1.1c0,0,0,0,0,0c0.2-0.4,0.7-0.5,1.1-0.3l1.1,0.6c0.7-1.3,1.1-2.7,1.2-4.2H39
	c-0.4,0-0.8-0.4-0.8-0.8c0-0.4,0.4-0.8,0.8-0.8c0,0,0,0,0,0h1.3C40.3,26.4,39.9,24.9,39.3,23.6C39.3,23.5,39.3,23.6,39.3,23.6
	L39.3,23.6z M27.1,31.7c-1.3-0.7-1.7-2.3-1-3.6c0,0,0,0,0,0c0.3-0.5,0.7-0.9,1.3-1.1l0-4.9c0.1-0.5,0.5-0.8,1-0.7
	c0.5-0.1,0.9,0.3,1,0.7l0,4.9c0.1,0,0.3,0.1,0.4,0.2c1.3,0.7,1.7,2.3,1,3.6C30.1,32,28.4,32.4,27.1,31.7
	C27.2,31.7,27.1,31.7,27.1,31.7L27.1,31.7z M28.3,19.4c-0.4,0-0.8-0.3-0.8-0.8c0,0,0,0,0,0v-1.5c0-0.5,0.4-0.8,0.9-0.8
	c0.4,0,0.8,0.4,0.8,0.8v1.5C29.1,19.1,28.8,19.4,28.3,19.4L28.3,19.4L28.3,19.4z"/>
</svg>
