<?xml version="1.0" standalone="no"?><!DOCTYPE svg PUBLIC "-//W3C//DTD SVG 1.1//EN" "http://www.w3.org/Graphics/SVG/1.1/DTD/svg11.dtd"><svg t="1505208087046" class="icon" style="" viewBox="0 0 1024 1024" version="1.1" xmlns="http://www.w3.org/2000/svg" p-id="20102" xmlns:xlink="http://www.w3.org/1999/xlink" width="18" height="18"><defs><style type="text/css"></style></defs><path d="M521.024 984.608c-27.68 0-50.592-20.736-53.152-23.104-0.288-0.288-21.632-20.928-121.216-120.48-73.984-73.92-127.968-163.584-153.536-210.336l-6.24-11.488c-4.704-9.152-7.232-14.24-7.232-14.24a22.912 22.912 0 0 1-1.568-4.352 372.736 372.736 0 0 1-33.504-154.528c0-207.616 168.896-376.448 376.48-376.448S897.472 238.496 897.472 446.08c0 53.472-11.296 105.6-33.632 154.912a25.92 25.92 0 0 1-1.504 3.968l-13.632 26.016c-25.44 46.56-79.424 136.032-153.376 210.048-99.584 99.648-120.864 120.192-120.864 120.192-2.816 2.656-25.792 23.392-53.376 23.392z m-296.448-397.76l10.688 20.448c24.544 44.768 75.744 129.92 145.504 199.584 98.624 98.624 120.096 119.456 120.352 119.744 4.064 3.68 13.632 9.696 19.904 9.696 6.688 0 16.992-7.072 20.128-9.984 0 0 21.568-21.024 120-119.456 69.696-69.664 120.96-154.816 145.344-199.392l10.976-20.832c0.288-1.024 0.672-1.984 1.024-2.912 20.288-43.744 30.624-90.112 30.624-137.728 0-180.928-147.2-328.192-328.128-328.192-180.96 0-328.224 147.264-328.224 328.192 0 47.616 10.272 93.888 30.624 137.728 0.48 1.056 0.864 2.08 1.216 3.104z m296.448 34.976c-96.928 0-175.744-78.816-175.744-175.744s78.816-175.744 175.744-175.744 175.744 78.816 175.744 175.744-78.88 175.744-175.744 175.744z m0-303.2a127.552 127.552 0 0 0-127.488 127.456c0 70.24 57.216 127.456 127.488 127.456s127.488-57.216 127.488-127.456a127.584 127.584 0 0 0-127.488-127.456z" fill="#999999" p-id="20103"></path></svg>