<?xml version="1.0" encoding="utf-8"?>
<!-- Generator: Adobe Illustrator 21.0.0, SVG Export Plug-In . SVG Version: 6.00 Build 0)  -->
<svg version="1.1" id="图层_1" xmlns="http://www.w3.org/2000/svg" xmlns:xlink="http://www.w3.org/1999/xlink" x="0px" y="0px"
	 viewBox="0 0 56.7 56.7" style="enable-background:new 0 0 56.7 56.7;" xml:space="preserve">
<style type="text/css">
	.st0{fill:#868686;}
</style>
<path id="TICK_拷贝" class="st0" d="M34.8,18.4c0-0.6-0.4-1-1-1h-4l0-3h5c1.1,0,3,0.9,3,2v6c-1,0.9-3,3-3,3L34.8,18.4z M31.9,18.4
	c0.5,0,1,0.4,1,0.9c0,0,0,0,0,0c0.1,0.3,0.1,0.7,0,1c-0.3,0.4-0.6,0.7-1,1h-12c-0.4-0.3-0.7-0.6-1-1c-0.1-0.3-0.1-0.7,0-1
	c0-0.6,0.4-1,1-1h3c0,0,0-1.3,0-2.9c0-1.7,1.3-3.1,3-3.1c0,0,0,0,0,0c1.7,0,3.1,1.4,3.1,3.1c0,1.7,0,2.9,0,2.9L31.9,18.4L31.9,18.4z
	 M25.8,15.4c-0.6,0-1,0.4-1,1c0,0.6,0.4,1,1,1c0.6,0,1-0.4,1-1C26.8,15.8,26.4,15.4,25.8,15.4L25.8,15.4L25.8,15.4z M16.8,18.4l0,22
	c0,0.6,0.4,1,1,1h4c1.5,0.8,2.9,1.8,4.1,3h-9.1c-1.2,0-3-1-3-2v-24c0-1.1,1.9-4,3-4h5l0,3h-4C17.3,17.4,16.8,17.8,16.8,18.4
	L16.8,18.4z M33.8,41.3c0.3,0,0.7,0,1,0v-5c0.7-0.7,2.3-2.5,3-3v8c0,1.1-1.9,3-3,3h-10c0.4-0.7-2.5-2.3-2-3H33.8z M20.8,41.3h6v3h-6
	V41.3z M42.4,25.1L42.4,25.1l-12,12.7l0,0c-0.6,0.6-1.5,0.7-2.1,0.1c0,0-0.1-0.1-0.1-0.1l0,0l-6.8-7.2l0,0c-0.3-0.3-0.5-0.7-0.5-1.2
	c0-0.9,0.7-1.6,1.6-1.7c0.4,0,0.8,0.2,1.1,0.5l0,0l5.3,6l11.3-11.5l0,0c0.3-0.3,0.7-0.5,1.1-0.5c0.9,0,1.6,0.8,1.6,1.7
	C42.8,24.4,42.7,24.8,42.4,25.1z"/>
</svg>
