<?xml version="1.0" standalone="no"?><!DOCTYPE svg PUBLIC "-//W3C//DTD SVG 1.1//EN" "http://www.w3.org/Graphics/SVG/1.1/DTD/svg11.dtd"><svg t="1514454750205" class="icon" style="" viewBox="0 0 1039 1024" version="1.1" xmlns="http://www.w3.org/2000/svg" p-id="6230" xmlns:xlink="http://www.w3.org/1999/xlink" width="32.46875" height="32"><defs><style type="text/css"></style></defs><path d="M1038.08943 880.845839l0-66.15996-50.288354-8.392162c-2.047558-6.227485-4.527244-12.269195-7.426942-18.084745l29.651229-41.605415-46.568825-46.758639-41.415602 29.691614c-5.775164-2.948161-11.853222-5.452078-18.080707-7.519829l-8.404278-50.433743-65.844951 0-8.363892 50.409512c-6.231524 2.035443-12.269195 4.5959-18.080707 7.535984l-41.41964-29.732-46.52844 46.766716 29.614881 41.645801c-2.903736 5.81555-5.383422 11.808798-7.426942 18.084745l-50.324702 8.440625 0 66.151883 50.433743 8.400239c2.051597 6.195176 4.535321 12.204578 7.439058 17.923202l-29.736039 41.807344 46.52844 46.766716 41.738688-29.925852c5.64593 2.867389 11.610907 5.330921 17.721274 7.398672l8.452741 50.740675 65.840912 0 8.436586-50.740675c6.114405-2.067751 12.038996-4.498974 17.729351-7.398672l41.690225 29.925852 46.568825-46.766716-29.732-41.807344c2.903736-5.718624 5.383422-11.728026 7.435019-17.890894L1038.08943 880.845839 1038.08943 880.845839 1038.08943 880.845839zM862.645591 900.432935c-28.940439 0-52.408607-23.561055-52.408607-52.638806 0-29.085828 23.468168-52.646883 52.408607-52.646883 28.960632 0 52.416684 23.561055 52.416684 52.646883C915.062275 876.87188 891.606223 900.432935 862.645591 900.432935L862.645591 900.432935 862.645591 900.432935zM831.960487 622.765456 831.960487 267.688157c0-57.061047-17.034716-74.087686-73.901911-74.087686l-107.418057 0 0 137.485259L224.636932 331.085731 224.636932 193.600472l-61.588291 0-29.231217 0c-56.903543 0-73.930181 17.026638-73.930181 74.087686l0 596.631827c0 57.016623 17.026638 74.051338 73.930181 74.051338l536.838279 0 0 60.110172L133.818232 998.481495C43.899326 998.480688 0 954.428703 0 864.319984L0 267.688157c0-90.16122 43.899326-134.169588 133.818232-134.169588l90.819508 0 0-33.374796 86.667851 0C324.890555 42.816988 376.378366 0 437.623379 0c61.232897 0 112.720708 42.816988 126.262055 100.144581l86.7567 0 0 33.374796 107.418057 0c89.890635 0 133.82227 44.008368 133.82227 134.169588l0 355.076491L831.960487 622.765456 831.960487 622.765456zM507.489944 160.222445 507.489944 130.187551c0-38.673408-31.323199-70.073341-69.867373-70.073341-38.560328 0-69.87545 31.399932-69.87545 70.073341l0 30.034893-83.235061 0 0 110.753921 306.167714 0 0-110.753921L507.489944 160.222445 507.489944 160.222445zM196.338627 738.171009l458.833982 0 0 60.069787L196.338627 798.240796 196.338627 738.171009zM196.338627 437.809153l499.198746 0 0 60.126327L196.338627 497.93548 196.338627 437.809153zM695.538181 636.391613c-4.36974 3.408559-8.275043 7.285592-11.60283 11.68764L196.338627 648.079253l0-60.069787 499.198746 0L695.537373 636.391613 695.538181 636.391613z" p-id="6231" fill="#ff6600"></path></svg>