<?xml version="1.0" standalone="no"?><!DOCTYPE svg PUBLIC "-//W3C//DTD SVG 1.1//EN" "http://www.w3.org/Graphics/SVG/1.1/DTD/svg11.dtd"><svg t="1511841212265" class="icon" style="" viewBox="0 0 1024 1024" version="1.1" xmlns="http://www.w3.org/2000/svg" p-id="19530" xmlns:xlink="http://www.w3.org/1999/xlink" width="24" height="24"><defs><style type="text/css"></style></defs><path d="M936.448 149.504l-41.984-0.512c-1.024 0-95.232-2.048-192.512-41.472-99.84-40.448-164.352-87.04-164.864-87.552l-25.6-18.432-25.088 18.432c-0.512 0.512-65.024 47.104-164.864 87.552-97.28 39.424-191.488 41.472-192.512 41.472l-41.984 0.512v428.032c0 215.04 335.36 442.368 424.96 442.368 96.768 0 424.96-227.328 424.96-442.368l-0.512-428.032zM512 965.12c-79.872 0-378.88-202.752-378.88-394.752v-381.952l37.888-0.512c1.024 0 84.992-2.048 171.52-36.864 89.088-36.352 146.432-77.824 146.944-78.336l22.528-16.384 22.528 16.384c0.512 0.512 57.856 41.984 146.944 78.336 87.04 35.328 171.008 36.864 172.032 36.864l37.376 0.512v381.952c0 191.488-292.864 394.752-378.88 394.752z" fill="#ff8800" p-id="19531"></path><path d="M480.256 704.512l-218.624-208.896 46.08-48.128 174.592 166.912 272.384-280.064 44.032 43.52z" fill="#ff8800" p-id="19532"></path></svg>