<?xml version="1.0" encoding="utf-8"?>
<!-- Generator: Adobe Illustrator 21.0.0, SVG Export Plug-In . SVG Version: 6.00 Build 0)  -->
<svg version="1.1" id="图层_1" xmlns="http://www.w3.org/2000/svg" xmlns:xlink="http://www.w3.org/1999/xlink" x="0px" y="0px"
	 viewBox="0 0 56.7 56.7" style="enable-background:new 0 0 56.7 56.7;" xml:space="preserve">
<style type="text/css">
	.st0{fill:#66CCCC;}
</style>
<path id="telephone_拷贝_8" class="st0" d="M28.3,56.7C12.7,56.7,0,44,0,28.3S12.7,0,28.3,0s28.3,12.7,28.3,28.3
	C56.7,44,44,56.7,28.3,56.7L28.3,56.7z M28.3,3.8c-13.5,0-24.5,11-24.5,24.5c0,13.5,11,24.5,24.5,24.5c13.5,0,24.5-11,24.5-24.5
	C52.8,14.8,41.9,3.8,28.3,3.8z M40.3,43.2L40.3,43.2l-2.5,1.5l-5.2-8.8l2.5-1.5c0.5-0.3,1.2-0.1,1.5,0.4l4.1,6.8v0
	C41,42.2,40.8,42.9,40.3,43.2C40.3,43.2,40.3,43.2,40.3,43.2z M20.7,33.1c-7.3-12.7-3.4-18.3-2-19.3l5.3,9c-1.3,0.8-0.7,2.5,0.1,4.1
	c0,0.1,3.7,6.3,3.7,6.3c1.9,2.6,2.9,3.8,4.2,3.1l5.2,8.8C35.7,46,28.3,46.5,20.7,33.1z M27.1,20.9L27.1,20.9l-2.5,1.5l-5.3-9
	l2.5-1.5c0.5-0.3,1.2-0.1,1.5,0.4c0,0,0,0,0,0l4.2,7v0C27.8,19.9,27.7,20.6,27.1,20.9C27.1,20.9,27.1,20.9,27.1,20.9z"/>
</svg>
