<?xml version="1.0" encoding="utf-8"?>
<!-- Generator: Adobe Illustrator 15.0.0, SVG Export Plug-In . SVG Version: 6.00 Build 0)  -->
<!DOCTYPE svg PUBLIC "-//W3C//DTD SVG 1.1//EN" "http://www.w3.org/Graphics/SVG/1.1/DTD/svg11.dtd">
<svg version="1.1" id="图层_1" xmlns="http://www.w3.org/2000/svg" xmlns:xlink="http://www.w3.org/1999/xlink" x="0px" y="0px"
	 width="356.061px" height="281.121px" viewBox="0 0 356.061 281.121" enable-background="new 0 0 356.061 281.121"
	 xml:space="preserve">
<path id="椭圆_13_拷贝_2" fill="#878787" d="M356,217.121c0,0-4.39,26.5-24,27c-7.8,0.199-10,0-10,0s-6.6,37.199-42,37
	c-35.399-0.201-43.939-33.08-44-37c0-0.051-26.47-3.25-27-13c-0.05-0.871-6.31,13.939-25,14c-18.689,0.06-60,0-60,0
	s-5.563,36.129-43,36c-37.437-0.131-42.875-34.561-43-36c-0.125-1.44-38.062,3-38-30c0.063-33,0-187,0-187s1.875-27.75,29-28
	s159,0,159,0s28.07,0,28,28c-0.01,4.29,0.011,9.44,0,15c0,0,12.9-8.94,47-2c28.25,5.75,60.351,18.57,80,67
	c8.391,20.68,12.86,45.081,13,61C356.16,187.74,356,217.121,356,217.121z M81.5,263.121c15.188,0,27.5-12.313,27.5-27.5
	c0-15.188-12.312-27.5-27.5-27.5c-15.188,0-27.5,12.312-27.5,27.5C54,250.808,66.312,263.121,81.5,263.121L81.5,263.121z M198,29.12
	c0-6.66-5.67-11.01-12.3-11.01H30c-6.646,0.02-12.018,5.423-12,12.07c0,0.32-0.023,1.62,0,1.94v181c-0.6,0.299,0,1.17,0,1.489
	c0,6.69,4.365,12.511,11,12.511h9c2.011-20.931,21.673-35,43-35s41,14.069,43,35h62c6.605,0.021,11.978-5.314,12-11.918
	c0-0.027,0-0.055,0-0.082V29.12z M279.5,263.121c15.188,0,27.5-12.313,27.5-27.5c0-15.188-12.312-27.5-27.5-27.5
	c-15.188,0-27.5,12.312-27.5,27.5C252,250.808,264.312,263.121,279.5,263.121L279.5,263.121z M310.17,87.8
	c-17.25-23.68-54.59-34.46-81.329-32.35c0.006,0.009,0.01,0.019,0.01,0.03C224.53,55.83,217,62.7,217,67.12v144
	c-0.569-0.65,0,2.91,0,3c0,7.439,10.101,12.16,17.49,12.16l0.51-0.16c2-20.94,21.69-34,43-34c21.341,0,39.99,12.779,43,34l9.25,0.16
	c4.641,0,7.58-7,7.58-11.66c0-0.08-0.029-0.15-0.029-0.221C338.03,188.65,341.29,130.54,310.17,87.8L310.17,87.8z M312,149.121
	c0,0-60,0.25-67,0s-8-5-8-5v-54c0-6.5,4.25-6.75,25-7s32.5,12.25,38,20s12.25,28.5,14,37C315.75,148.621,312,149.121,312,149.121z
	 M255,101.12v30h38C293,131.12,286.5,96.87,255,101.12z"/>
</svg>
