<?xml version="1.0" standalone="no"?><!DOCTYPE svg PUBLIC "-//W3C//DTD SVG 1.1//EN" "http://www.w3.org/Graphics/SVG/1.1/DTD/svg11.dtd"><svg t="1513674505180" class="icon" style="" viewBox="0 0 1024 1024" version="1.1" xmlns="http://www.w3.org/2000/svg" p-id="1002" xmlns:xlink="http://www.w3.org/1999/xlink" width="32" height="32"><defs><style type="text/css"></style></defs><path d="M608.584 730.995H345.068c-8.284 0-15-6.716-15-15s6.716-15 15-15h248.516V239.343H96.553v461.652h81.191c8.284 0 15 6.716 15 15s-6.716 15-15 15H81.553c-8.284 0-15-6.716-15-15V224.343c0-8.284 6.716-15 15-15h527.031c8.284 0 15 6.716 15 15v491.652c0 8.284-6.716 15-15 15z" fill="#ffffff" p-id="1003"></path><path d="M691.642 730.995h-83.059c-8.284 0-15-6.716-15-15s6.716-15 15-15h83.059c8.284 0 15 6.716 15 15s-6.715 15-15 15zM942.025 730.995h-83.06c-8.284 0-15-6.716-15-15s6.716-15 15-15h68.06V530.097L789.044 333.03h-180.46c-8.284 0-15-6.716-15-15s6.716-15 15-15h188.269a15 15 0 0 1 12.287 6.396l145.173 207.337a14.996 14.996 0 0 1 2.713 8.604v190.628c-0.001 8.284-6.717 15-15.001 15zM261.406 814.657c-54.402 0-98.662-44.26-98.662-98.662s44.259-98.661 98.662-98.661 98.662 44.259 98.662 98.661-44.259 98.662-98.662 98.662z m0-167.323c-37.86 0-68.662 30.801-68.662 68.661s30.801 68.662 68.662 68.662 68.662-30.802 68.662-68.662-30.801-68.661-68.662-68.661z" fill="#ffffff" p-id="1004"></path><path d="M775.304 814.657c-54.402 0-98.662-44.26-98.662-98.662s44.26-98.661 98.662-98.661 98.661 44.259 98.661 98.661-44.258 98.662-98.661 98.662z m0-167.323c-37.86 0-68.662 30.801-68.662 68.661s30.802 68.662 68.662 68.662 68.661-30.802 68.661-68.662-30.8-68.661-68.661-68.661zM942.447 561.54h-197.5c-9.542 0-17.305-7.763-17.305-17.305v-161.26c0-9.542 7.763-17.305 17.305-17.305h90.934c8.284 0 15 6.716 15 15s-6.716 15-15 15h-78.238v135.87h184.805c8.284 0 15 6.716 15 15s-6.717 15-15.001 15z" fill="#ffffff" p-id="1005"></path></svg>