<?xml version="1.0" encoding="utf-8"?>
<!-- Generator: Adobe Illustrator 21.0.0, SVG Export Plug-In . SVG Version: 6.00 Build 0)  -->
<svg version="1.1" id="图层_1" xmlns="http://www.w3.org/2000/svg" xmlns:xlink="http://www.w3.org/1999/xlink" x="0px" y="0px"
	 viewBox="0 0 56.7 56.7" style="enable-background:new 0 0 56.7 56.7;" xml:space="preserve">
<style type="text/css">
	.st0{fill:#FFFFFF;}
</style>
<path id="圆角矩形_4" class="st0" d="M46.4,42.3c0,4.2-3.4,7.5-7.5,7.5H17.8c-4.2,0-7.5-3.4-7.5-7.5V21.2c0-0.5,0-0.9,0.1-1.4
	c-0.3-2.3,0.2-4.6,1.5-6.4l0.9-1.4c2-3.1,5.6-5.1,8.5-5.1h14c2.9,0,6.5,2,8.5,5.1l0.9,1.4c1.3,1.9,1.8,4.2,1.5,6.4
	c0.1,0.5,0.1,0.9,0.1,1.4C46.4,21.2,46.4,42.3,46.4,42.3z M42.6,21.2c0-2.1-1.7-3.8-3.8-3.8H17.8c-2.1,0-3.8,1.7-3.8,3.8v21.1
	c0,2.1,1.7,3.8,3.8,3.8h21.1c2.1,0,3.8-1.7,3.8-3.8L42.6,21.2L42.6,21.2z M30.7,39.5c-0.7,0.6-1.8,0.6-2.6,0c-0.7-0.7-0.7-1.8,0-2.5
	c0,0,0,0,0,0l3.9-3.8H19.7c-1,0-1.9-0.8-1.9-1.9v-0.8c0-1,0.8-1.9,1.9-1.9h11.5l-3-3c-0.7-0.7-0.7-1.8,0-2.5c0,0,0,0,0,0
	c0.7-0.7,1.8-0.7,2.6,0l7,6.8c0.7,0.8,0.7,1.9,0,2.7L30.7,39.5z"/>
</svg>
