<?xml version="1.0" standalone="no"?><!DOCTYPE svg PUBLIC "-//W3C//DTD SVG 1.1//EN" "http://www.w3.org/Graphics/SVG/1.1/DTD/svg11.dtd"><svg t="1510642214593" class="icon" style="" viewBox="0 0 1024 1024" version="1.1" xmlns="http://www.w3.org/2000/svg" p-id="6772" xmlns:xlink="http://www.w3.org/1999/xlink" width="24" height="24"><defs><style type="text/css"></style></defs><path d="M511.488 914.944c215.552 0 391.168-168.96 402.432-381.44 0.512-11.776 10.24-21.504 22.528-21.504 12.8 0 23.04 10.752 22.528 23.552-12.288 236.544-207.872 424.448-447.488 424.448-247.296 0-448-200.704-448-448s200.704-447.488 448-447.488c134.144 0 253.952 58.88 335.872 152.064V86.528c0-12.288 10.24-22.528 22.528-22.528 12.288 0 22.528 10.24 22.528 22.528v201.728h-201.728c-12.288 0-22.528-10.24-22.528-22.528 0-12.288 10.24-22.528 22.528-22.528h120.832c-77.824-87.04-192.512-139.776-320-134.144-205.312 9.728-372.224 175.616-382.976 380.928-11.776 232.96 173.056 424.96 402.944 424.96z" p-id="6773" fill="#1296db"></path></svg>