<?xml version="1.0" encoding="utf-8"?>
<!-- Generator: Adobe Illustrator 21.0.0, SVG Export Plug-In . SVG Version: 6.00 Build 0)  -->
<svg version="1.1" id="图层_1" xmlns="http://www.w3.org/2000/svg" xmlns:xlink="http://www.w3.org/1999/xlink" x="0px" y="0px"
	 viewBox="0 0 56.7 56.7" style="enable-background:new 0 0 56.7 56.7;" xml:space="preserve">
<style type="text/css">
	.st0{fill:#66CCCC;}
</style>
<path id="TICK_拷贝_4" class="st0" d="M28.7,47.8c-0.3,0.1-0.6,0.1-0.8,0c-0.6-0.1-15-3-15-25.6v-6.1c0-0.7,0.3-1.3,0.8-1.8
	c0.4-0.4,1-0.7,1.6-0.7c0.1,0,0.1,0,0.1,0c0,0,0.4,0,1,0c1.6,0,3.2-0.2,4.8-0.5c2.8-0.7,5.7-3.8,5.8-3.9c0.4-0.3,0.9-0.4,1.3-0.4
	c0.5,0,0.9,0.1,1.3,0.4c0.8,0.6,3.5,3.3,5.9,3.9c1.6,0.4,3.2,0.5,4.8,0.5c0.6,0,1,0,1,0c0.1,0,0.1,0,0.2,0c0.6,0,1.2,0.2,1.6,0.7
	c0.5,0.5,0.8,1.1,0.8,1.8v6.1C43.8,44.8,29.3,47.7,28.7,47.8z M38,21.2c-0.4,0-0.8,0.2-1,0.5L26.9,32.3l-5.3-5.5
	c-0.3-0.3-0.6-0.4-1-0.5c-0.8,0-1.5,0.7-1.5,1.5c0,0.4,0.2,0.8,0.4,1.1l6.3,6.6c0.5,0.6,1.4,0.6,2,0.1c0,0,0.1-0.1,0.1-0.1
	l11.1-11.7c0.3-0.3,0.4-0.7,0.4-1.1C39.5,21.9,38.8,21.2,38,21.2z"/>
</svg>
