<?xml version="1.0" encoding="utf-8"?>
<!-- Generator: Adobe Illustrator 21.0.0, SVG Export Plug-In . SVG Version: 6.00 Build 0)  -->
<svg version="1.1" id="图层_1" xmlns="http://www.w3.org/2000/svg" xmlns:xlink="http://www.w3.org/1999/xlink" x="0px" y="0px"
	 viewBox="0 0 56.7 56.7" style="enable-background:new 0 0 56.7 56.7;" xml:space="preserve">
<style type="text/css">
	.st0{fill:#868686;}
</style>
<path id="zjcp" class="st0" d="M9.6,39.1c-0.8,0-1.4-0.6-1.4-1.4c0-0.3,0.1-0.6,0.3-0.9l12.1-14l12.9,6.4l12.3-10.6
	c0.6-0.5,1.5-0.4,1.9,0.2c0.5,0.6,0.4,1.4-0.2,1.9L33.9,32.6l-12.6-6.3L10.6,38.6C10.4,38.9,10,39.1,9.6,39.1z M36.7,30.4
	c0,1.9-1.5,3.5-3.5,3.5s-3.5-1.5-3.5-3.5c0-1.9,1.5-3.5,3.5-3.5l0,0C35.1,27,36.7,28.5,36.7,30.4L36.7,30.4z M50.5,19.3
	c0,1.9-1.6,3.5-3.5,3.5c-1.9,0-3.5-1.5-3.5-3.5c0-1.9,1.6-3.5,3.5-3.5C48.9,15.9,50.5,17.4,50.5,19.3L50.5,19.3L50.5,19.3z
	 M24.2,24.9c0,1.9-1.5,3.5-3.5,3.5c-1.9,0-3.5-1.5-3.5-3.5c0-1.9,1.5-3.5,3.5-3.5c0,0,0,0,0,0C22.6,21.4,24.2,23,24.2,24.9
	C24.2,24.9,24.2,24.9,24.2,24.9L24.2,24.9z M13.1,37.3c0,1.9-1.6,3.5-3.5,3.5c-1.9,0-3.5-1.5-3.5-3.5c0-1.9,1.5-3.5,3.5-3.5
	C11.6,33.9,13.1,35.4,13.1,37.3C13.1,37.3,13.1,37.3,13.1,37.3L13.1,37.3z"/>
</svg>
